<svg id="visual" viewBox="0 0 900 600" width="900" height="600" xmlns="http://www.w3.org/2000/svg" xmlns:xlink="http://www.w3.org/1999/xlink" version="1.1"><g stroke-width="1" stroke-linejoin="bevel"><path d="M453 311L397 252.3L439 320.9Z" fill="#e0e0e0" stroke="#e0e0e0"></path><path d="M397 252.3L400 322.1L439 320.9Z" fill="#6e6e6e" stroke="#6e6e6e"></path><path d="M400 322.1L403 324L439 320.9Z" fill="#f0f0f0" stroke="#f0f0f0"></path><path d="M397 252.3L370 278.3L400 322.1Z" fill="#a6a6a6" stroke="#a6a6a6"></path><path d="M397 252.3L363 265.1L370 278.3Z" fill="#e0e0e0" stroke="#e0e0e0"></path><path d="M453 311L479 245.1L397 252.3Z" fill="#6e6e6e" stroke="#6e6e6e"></path><path d="M370 278.3L381 336.9L400 322.1Z" fill="#7b7b7b" stroke="#7b7b7b"></path><path d="M400 322.1L381 336.9L403 324Z" fill="#6e6e6e" stroke="#6e6e6e"></path><path d="M403 324L425 390.9L439 320.9Z" fill="#ffffff" stroke="#ffffff"></path><path d="M351 277.3L381 336.9L370 278.3Z" fill="#b4b4b4" stroke="#b4b4b4"></path><path d="M453 311L492 283.1L479 245.1Z" fill="#ffffff" stroke="#ffffff"></path><path d="M397 252.3L366 244.1L363 265.1Z" fill="#e0e0e0" stroke="#e0e0e0"></path><path d="M376 168.3L366 244.1L397 252.3Z" fill="#979797" stroke="#979797"></path><path d="M366 244.1L351 277.3L363 265.1Z" fill="#7b7b7b" stroke="#7b7b7b"></path><path d="M363 265.1L351 277.3L370 278.3Z" fill="#a6a6a6" stroke="#a6a6a6"></path><path d="M505 252L499 245.3L479 245.1Z" fill="#b4b4b4" stroke="#b4b4b4"></path><path d="M385 157.6L376 168.3L397 252.3Z" fill="#c3c3c3" stroke="#c3c3c3"></path><path d="M492 283.1L505 252L479 245.1Z" fill="#ffffff" stroke="#ffffff"></path><path d="M326 361.7L371 371.6L381 336.9Z" fill="#e0e0e0" stroke="#e0e0e0"></path><path d="M381 336.9L425 390.9L403 324Z" fill="#898989" stroke="#898989"></path><path d="M525 316.7L492 283.1L453 311Z" fill="#898989" stroke="#898989"></path><path d="M525 316.7L528 287.9L492 283.1Z" fill="#898989" stroke="#898989"></path><path d="M525 316.7L453 311L520 344Z" fill="#6e6e6e" stroke="#6e6e6e"></path><path d="M492 283.1L528 287.9L505 252Z" fill="#898989" stroke="#898989"></path><path d="M520 344L453 311L439 320.9Z" fill="#7b7b7b" stroke="#7b7b7b"></path><path d="M371 371.6L425 390.9L381 336.9Z" fill="#a6a6a6" stroke="#a6a6a6"></path><path d="M311 327L325 332.7L351 277.3Z" fill="#ffffff" stroke="#ffffff"></path><path d="M351 277.3L325 332.7L381 336.9Z" fill="#c3c3c3" stroke="#c3c3c3"></path><path d="M503 402.7L520 344L439 320.9Z" fill="#a6a6a6" stroke="#a6a6a6"></path><path d="M528 287.9L536 248.1L505 252Z" fill="#898989" stroke="#898989"></path><path d="M505 252L536 248.1L499 245.3Z" fill="#979797" stroke="#979797"></path><path d="M544 254L536 248.1L528 287.9Z" fill="#ffffff" stroke="#ffffff"></path><path d="M279 270L311 327L351 277.3Z" fill="#e0e0e0" stroke="#e0e0e0"></path><path d="M326 361.7L346 378.9L371 371.6Z" fill="#6e6e6e" stroke="#6e6e6e"></path><path d="M371 371.6L419 404.6L425 390.9Z" fill="#979797" stroke="#979797"></path><path d="M425 390.9L503 402.7L439 320.9Z" fill="#b4b4b4" stroke="#b4b4b4"></path><path d="M326 361.7L381 336.9L325 332.7Z" fill="#d1d1d1" stroke="#d1d1d1"></path><path d="M371 371.6L390 440.7L419 404.6Z" fill="#b4b4b4" stroke="#b4b4b4"></path><path d="M544 254L528 287.9L603 301.9Z" fill="#b4b4b4" stroke="#b4b4b4"></path><path d="M558 240.1L544 254L603 301.9Z" fill="#7b7b7b" stroke="#7b7b7b"></path><path d="M385 157.6L479 245.1L502 174.4Z" fill="#7b7b7b" stroke="#7b7b7b"></path><path d="M385 157.6L397 252.3L479 245.1Z" fill="#6e6e6e" stroke="#6e6e6e"></path><path d="M366 244.1L291 233L351 277.3Z" fill="#c3c3c3" stroke="#c3c3c3"></path><path d="M313 359.9L326 361.7L325 332.7Z" fill="#f0f0f0" stroke="#f0f0f0"></path><path d="M502 174.4L479 245.1L499 245.3Z" fill="#c3c3c3" stroke="#c3c3c3"></path><path d="M311 327L313 359.9L325 332.7Z" fill="#c3c3c3" stroke="#c3c3c3"></path><path d="M326 361.7L290 407.6L346 378.9Z" fill="#f0f0f0" stroke="#f0f0f0"></path><path d="M519 183.3L499 245.3L536 248.1Z" fill="#7b7b7b" stroke="#7b7b7b"></path><path d="M519 183.3L502 174.4L499 245.3Z" fill="#898989" stroke="#898989"></path><path d="M555 223.3L519 183.3L536 248.1Z" fill="#f0f0f0" stroke="#f0f0f0"></path><path d="M306 191.4L366 244.1L376 168.3Z" fill="#7b7b7b" stroke="#7b7b7b"></path><path d="M306 191.4L291 233L366 244.1Z" fill="#ffffff" stroke="#ffffff"></path><path d="M311 327L298 352.7L313 359.9Z" fill="#b4b4b4" stroke="#b4b4b4"></path><path d="M586 324.1L528 287.9L525 316.7Z" fill="#c3c3c3" stroke="#c3c3c3"></path><path d="M544 254L558 240.1L536 248.1Z" fill="#c3c3c3" stroke="#c3c3c3"></path><path d="M228 300.9L298 352.7L311 327Z" fill="#ffffff" stroke="#ffffff"></path><path d="M290 407.6L390 440.7L346 378.9Z" fill="#b4b4b4" stroke="#b4b4b4"></path><path d="M468 438.4L503 402.7L425 390.9Z" fill="#898989" stroke="#898989"></path><path d="M520 344L559 341.7L525 316.7Z" fill="#898989" stroke="#898989"></path><path d="M502 174.4L400 140.7L385 157.6Z" fill="#898989" stroke="#898989"></path><path d="M293 177.4L306 191.4L376 168.3Z" fill="#c3c3c3" stroke="#c3c3c3"></path><path d="M291 233L279 270L351 277.3Z" fill="#c3c3c3" stroke="#c3c3c3"></path><path d="M558 240.1L555 223.3L536 248.1Z" fill="#7b7b7b" stroke="#7b7b7b"></path><path d="M547 401.6L559 341.7L520 344Z" fill="#e0e0e0" stroke="#e0e0e0"></path><path d="M291 189.3L306 191.4L293 177.4Z" fill="#6e6e6e" stroke="#6e6e6e"></path><path d="M519 183.3L542 147.4L502 174.4Z" fill="#f0f0f0" stroke="#f0f0f0"></path><path d="M442 102.7L411 112.4L400 140.7Z" fill="#979797" stroke="#979797"></path><path d="M555 223.3L534 180.4L519 183.3Z" fill="#6e6e6e" stroke="#6e6e6e"></path><path d="M290 407.6L326 361.7L313 359.9Z" fill="#e0e0e0" stroke="#e0e0e0"></path><path d="M346 378.9L390 440.7L371 371.6Z" fill="#6e6e6e" stroke="#6e6e6e"></path><path d="M419 404.6L468 438.4L425 390.9Z" fill="#a6a6a6" stroke="#a6a6a6"></path><path d="M390 440.7L468 438.4L419 404.6Z" fill="#a6a6a6" stroke="#a6a6a6"></path><path d="M293 177.4L376 168.3L307 115.4Z" fill="#e0e0e0" stroke="#e0e0e0"></path><path d="M306 191.4L291 189.3L291 233Z" fill="#a6a6a6" stroke="#a6a6a6"></path><path d="M229 221.1L228 300.9L279 270Z" fill="#e0e0e0" stroke="#e0e0e0"></path><path d="M362 116.6L376 168.3L385 157.6Z" fill="#7b7b7b" stroke="#7b7b7b"></path><path d="M612 359.6L586 324.1L559 341.7Z" fill="#7b7b7b" stroke="#7b7b7b"></path><path d="M559 341.7L586 324.1L525 316.7Z" fill="#898989" stroke="#898989"></path><path d="M558 240.1L599 234.4L555 223.3Z" fill="#ffffff" stroke="#ffffff"></path><path d="M547 401.6L520 344L503 402.7Z" fill="#7b7b7b" stroke="#7b7b7b"></path><path d="M535 453.3L547 401.6L503 402.7Z" fill="#a6a6a6" stroke="#a6a6a6"></path><path d="M442 102.7L400 140.7L502 174.4Z" fill="#b4b4b4" stroke="#b4b4b4"></path><path d="M400 140.7L362 116.6L385 157.6Z" fill="#a6a6a6" stroke="#a6a6a6"></path><path d="M411 112.4L362 116.6L400 140.7Z" fill="#f0f0f0" stroke="#f0f0f0"></path><path d="M615 143.6L542 147.4L534 180.4Z" fill="#a6a6a6" stroke="#a6a6a6"></path><path d="M534 180.4L542 147.4L519 183.3Z" fill="#a6a6a6" stroke="#a6a6a6"></path><path d="M615 143.6L534 180.4L555 223.3Z" fill="#898989" stroke="#898989"></path><path d="M612 359.6L603 301.9L586 324.1Z" fill="#6e6e6e" stroke="#6e6e6e"></path><path d="M586 324.1L603 301.9L528 287.9Z" fill="#979797" stroke="#979797"></path><path d="M515 75.6L442 102.7L502 174.4Z" fill="#979797" stroke="#979797"></path><path d="M411 112.4L413 93.6L362 116.6Z" fill="#898989" stroke="#898989"></path><path d="M201 408.6L290 407.6L298 352.7Z" fill="#e0e0e0" stroke="#e0e0e0"></path><path d="M298 352.7L290 407.6L313 359.9Z" fill="#979797" stroke="#979797"></path><path d="M613 290.1L599 234.4L558 240.1Z" fill="#ffffff" stroke="#ffffff"></path><path d="M535 453.3L567 405.6L547 401.6Z" fill="#979797" stroke="#979797"></path><path d="M547 401.6L567 405.6L559 341.7Z" fill="#979797" stroke="#979797"></path><path d="M670 322.7L613 290.1L603 301.9Z" fill="#6e6e6e" stroke="#6e6e6e"></path><path d="M603 301.9L613 290.1L558 240.1Z" fill="#a6a6a6" stroke="#a6a6a6"></path><path d="M442 102.7L413 93.6L411 112.4Z" fill="#e0e0e0" stroke="#e0e0e0"></path><path d="M290 407.6L373 472.3L390 440.7Z" fill="#b4b4b4" stroke="#b4b4b4"></path><path d="M390 440.7L459 476.4L468 438.4Z" fill="#7b7b7b" stroke="#7b7b7b"></path><path d="M468 438.4L516 457.4L503 402.7Z" fill="#b4b4b4" stroke="#b4b4b4"></path><path d="M229 221.1L279 270L291 233Z" fill="#ffffff" stroke="#ffffff"></path><path d="M279 270L228 300.9L311 327Z" fill="#d1d1d1" stroke="#d1d1d1"></path><path d="M229 221.1L291 233L241 186.6Z" fill="#f0f0f0" stroke="#f0f0f0"></path><path d="M412 494.6L459 476.4L390 440.7Z" fill="#a6a6a6" stroke="#a6a6a6"></path><path d="M459 476.4L516 457.4L468 438.4Z" fill="#a6a6a6" stroke="#a6a6a6"></path><path d="M535 453.3L579 406.9L567 405.6Z" fill="#979797" stroke="#979797"></path><path d="M567 405.6L579 406.9L559 341.7Z" fill="#f0f0f0" stroke="#f0f0f0"></path><path d="M551 490.4L535 453.3L516 457.4Z" fill="#f0f0f0" stroke="#f0f0f0"></path><path d="M516 457.4L535 453.3L503 402.7Z" fill="#a6a6a6" stroke="#a6a6a6"></path><path d="M579 406.9L612 359.6L559 341.7Z" fill="#f0f0f0" stroke="#f0f0f0"></path><path d="M241 186.6L291 189.3L293 177.4Z" fill="#f0f0f0" stroke="#f0f0f0"></path><path d="M241 186.6L291 233L291 189.3Z" fill="#d1d1d1" stroke="#d1d1d1"></path><path d="M315 105.9L307 115.4L362 116.6Z" fill="#6e6e6e" stroke="#6e6e6e"></path><path d="M362 116.6L307 115.4L376 168.3Z" fill="#a6a6a6" stroke="#a6a6a6"></path><path d="M262 143.4L241 186.6L293 177.4Z" fill="#898989" stroke="#898989"></path><path d="M328 75.7L315 105.9L362 116.6Z" fill="#898989" stroke="#898989"></path><path d="M307 115.4L262 143.4L293 177.4Z" fill="#e0e0e0" stroke="#e0e0e0"></path><path d="M373 472.3L412 494.6L390 440.7Z" fill="#7b7b7b" stroke="#7b7b7b"></path><path d="M509 530.3L551 490.4L516 457.4Z" fill="#c3c3c3" stroke="#c3c3c3"></path><path d="M300 80.7L262 143.4L307 115.4Z" fill="#979797" stroke="#979797"></path><path d="M535 453.3L597 416.7L579 406.9Z" fill="#ffffff" stroke="#ffffff"></path><path d="M579 406.9L623 380.9L612 359.6Z" fill="#e0e0e0" stroke="#e0e0e0"></path><path d="M613 290.1L642 266L599 234.4Z" fill="#c3c3c3" stroke="#c3c3c3"></path><path d="M615 143.6L559 107.7L542 147.4Z" fill="#ffffff" stroke="#ffffff"></path><path d="M670 322.7L642 266L613 290.1Z" fill="#898989" stroke="#898989"></path><path d="M670 322.7L603 301.9L612 359.6Z" fill="#979797" stroke="#979797"></path><path d="M401 56.7L385 65.9L413 93.6Z" fill="#d1d1d1" stroke="#d1d1d1"></path><path d="M413 93.6L385 65.9L362 116.6Z" fill="#979797" stroke="#979797"></path><path d="M401 56.7L413 93.6L442 102.7Z" fill="#f0f0f0" stroke="#f0f0f0"></path><path d="M268 456.3L365 497.4L373 472.3Z" fill="#979797" stroke="#979797"></path><path d="M373 472.3L365 497.4L412 494.6Z" fill="#c3c3c3" stroke="#c3c3c3"></path><path d="M615 143.6L555 223.3L599 234.4Z" fill="#f0f0f0" stroke="#f0f0f0"></path><path d="M542 147.4L515 75.6L502 174.4Z" fill="#c3c3c3" stroke="#c3c3c3"></path><path d="M597 416.7L623 380.9L579 406.9Z" fill="#f0f0f0" stroke="#f0f0f0"></path><path d="M385 65.9L358 70.6L362 116.6Z" fill="#f0f0f0" stroke="#f0f0f0"></path><path d="M315 105.9L300 80.7L307 115.4Z" fill="#d1d1d1" stroke="#d1d1d1"></path><path d="M220 130.6L215 201.3L241 186.6Z" fill="#ffffff" stroke="#ffffff"></path><path d="M241 186.6L215 201.3L229 221.1Z" fill="#d1d1d1" stroke="#d1d1d1"></path><path d="M229 221.1L192 265.3L228 300.9Z" fill="#898989" stroke="#898989"></path><path d="M559 107.7L515 75.6L542 147.4Z" fill="#ffffff" stroke="#ffffff"></path><path d="M408 25.7L401 56.7L442 102.7Z" fill="#f0f0f0" stroke="#f0f0f0"></path><path d="M385 65.9L394 0L358 70.6Z" fill="#f0f0f0" stroke="#f0f0f0"></path><path d="M306 51.9L328 75.7L358 70.6Z" fill="#c3c3c3" stroke="#c3c3c3"></path><path d="M358 70.6L328 75.7L362 116.6Z" fill="#e0e0e0" stroke="#e0e0e0"></path><path d="M168 224.3L192 265.3L229 221.1Z" fill="#f0f0f0" stroke="#f0f0f0"></path><path d="M260 458.6L268 456.3L290 407.6Z" fill="#c3c3c3" stroke="#c3c3c3"></path><path d="M260 458.6L290 407.6L201 408.6Z" fill="#898989" stroke="#898989"></path><path d="M290 407.6L268 456.3L373 472.3Z" fill="#d1d1d1" stroke="#d1d1d1"></path><path d="M336 526.1L374 513.3L365 497.4Z" fill="#6e6e6e" stroke="#6e6e6e"></path><path d="M365 497.4L374 513.3L412 494.6Z" fill="#c3c3c3" stroke="#c3c3c3"></path><path d="M509 530.3L516 457.4L459 476.4Z" fill="#ffffff" stroke="#ffffff"></path><path d="M328 75.7L300 80.7L315 105.9Z" fill="#a6a6a6" stroke="#a6a6a6"></path><path d="M262 143.4L220 130.6L241 186.6Z" fill="#7b7b7b" stroke="#7b7b7b"></path><path d="M306 51.9L300 80.7L328 75.7Z" fill="#f0f0f0" stroke="#f0f0f0"></path><path d="M631 136.4L615 143.6L645 141.7Z" fill="#a6a6a6" stroke="#a6a6a6"></path><path d="M559 107.7L554 79.6L515 75.6Z" fill="#ffffff" stroke="#ffffff"></path><path d="M201 408.6L298 352.7L228 300.9Z" fill="#ffffff" stroke="#ffffff"></path><path d="M268 456.3L336 526.1L365 497.4Z" fill="#ffffff" stroke="#ffffff"></path><path d="M615 143.6L569 92.7L559 107.7Z" fill="#c3c3c3" stroke="#c3c3c3"></path><path d="M552 28.9L563 85.9L639 19.9Z" fill="#979797" stroke="#979797"></path><path d="M569 92.7L563 85.9L559 107.7Z" fill="#7b7b7b" stroke="#7b7b7b"></path><path d="M563 85.9L554 79.6L559 107.7Z" fill="#b4b4b4" stroke="#b4b4b4"></path><path d="M455 0L408 25.7L442 102.7Z" fill="#898989" stroke="#898989"></path><path d="M509 530.3L459 476.4L439 563.1Z" fill="#979797" stroke="#979797"></path><path d="M535 453.3L562 486.6L597 416.7Z" fill="#b4b4b4" stroke="#b4b4b4"></path><path d="M652 427.6L664 386.9L623 380.9Z" fill="#7b7b7b" stroke="#7b7b7b"></path><path d="M171 273L179 279.1L192 265.3Z" fill="#d1d1d1" stroke="#d1d1d1"></path><path d="M192 265.3L179 279.1L228 300.9Z" fill="#a6a6a6" stroke="#a6a6a6"></path><path d="M551 490.4L562 486.6L535 453.3Z" fill="#ffffff" stroke="#ffffff"></path><path d="M664 386.9L612 359.6L623 380.9Z" fill="#ffffff" stroke="#ffffff"></path><path d="M664 386.9L670 322.7L612 359.6Z" fill="#a6a6a6" stroke="#a6a6a6"></path><path d="M645 141.7L615 143.6L674 161.3Z" fill="#6e6e6e" stroke="#6e6e6e"></path><path d="M168 224.3L171 273L192 265.3Z" fill="#c3c3c3" stroke="#c3c3c3"></path><path d="M174 396.9L201 408.6L228 300.9Z" fill="#ffffff" stroke="#ffffff"></path><path d="M209 101.6L220 130.6L262 143.4Z" fill="#7b7b7b" stroke="#7b7b7b"></path><path d="M215 201.3L168 224.3L229 221.1Z" fill="#7b7b7b" stroke="#7b7b7b"></path><path d="M336 526.1L394 536.1L374 513.3Z" fill="#f0f0f0" stroke="#f0f0f0"></path><path d="M374 513.3L394 536.1L412 494.6Z" fill="#ffffff" stroke="#ffffff"></path><path d="M676 231.3L599 234.4L642 266Z" fill="#979797" stroke="#979797"></path><path d="M615 143.6L640 85.7L569 92.7Z" fill="#7b7b7b" stroke="#7b7b7b"></path><path d="M167 307.9L228 300.9L179 279.1Z" fill="#979797" stroke="#979797"></path><path d="M171 273L167 307.9L179 279.1Z" fill="#f0f0f0" stroke="#f0f0f0"></path><path d="M336 526.1L268 456.3L309 537.4Z" fill="#ffffff" stroke="#ffffff"></path><path d="M330 531.3L336 526.1L309 537.4Z" fill="#7b7b7b" stroke="#7b7b7b"></path><path d="M513 39.9L442 102.7L515 75.6Z" fill="#ffffff" stroke="#ffffff"></path><path d="M401 56.7L408 25.7L385 65.9Z" fill="#c3c3c3" stroke="#c3c3c3"></path><path d="M681 302.1L676 231.3L642 266Z" fill="#7b7b7b" stroke="#7b7b7b"></path><path d="M670 322.7L681 302.1L642 266Z" fill="#c3c3c3" stroke="#c3c3c3"></path><path d="M335 0L306 51.9L358 70.6Z" fill="#6e6e6e" stroke="#6e6e6e"></path><path d="M300 80.7L209 101.6L262 143.4Z" fill="#7b7b7b" stroke="#7b7b7b"></path><path d="M501 17.9L513 39.9L527 0Z" fill="#b4b4b4" stroke="#b4b4b4"></path><path d="M554 79.6L513 39.9L515 75.6Z" fill="#b4b4b4" stroke="#b4b4b4"></path><path d="M513 39.9L554 79.6L552 28.9Z" fill="#6e6e6e" stroke="#6e6e6e"></path><path d="M439 563.1L459 476.4L412 494.6Z" fill="#f0f0f0" stroke="#f0f0f0"></path><path d="M569 527.3L598 489.3L562 486.6Z" fill="#7b7b7b" stroke="#7b7b7b"></path><path d="M168 210.1L168 224.3L215 201.3Z" fill="#d1d1d1" stroke="#d1d1d1"></path><path d="M140 278L142 316.7L167 307.9Z" fill="#d1d1d1" stroke="#d1d1d1"></path><path d="M652 427.6L623 380.9L597 416.7Z" fill="#898989" stroke="#898989"></path><path d="M749 349.9L752 296L681 302.1Z" fill="#6e6e6e" stroke="#6e6e6e"></path><path d="M674 161.3L615 143.6L599 234.4Z" fill="#b4b4b4" stroke="#b4b4b4"></path><path d="M631 136.4L640 85.7L615 143.6Z" fill="#a6a6a6" stroke="#a6a6a6"></path><path d="M309 537.4L268 456.3L287 535.1Z" fill="#898989" stroke="#898989"></path><path d="M336 526.1L399 551.3L394 536.1Z" fill="#6e6e6e" stroke="#6e6e6e"></path><path d="M220 130.6L168 210.1L215 201.3Z" fill="#f0f0f0" stroke="#f0f0f0"></path><path d="M168 224.3L158 226.1L171 273Z" fill="#e0e0e0" stroke="#e0e0e0"></path><path d="M330 531.3L399 551.3L336 526.1Z" fill="#f0f0f0" stroke="#f0f0f0"></path><path d="M394 536.1L439 563.1L412 494.6Z" fill="#7b7b7b" stroke="#7b7b7b"></path><path d="M569 527.3L562 486.6L551 490.4Z" fill="#ffffff" stroke="#ffffff"></path><path d="M562 486.6L611 478.4L597 416.7Z" fill="#b4b4b4" stroke="#b4b4b4"></path><path d="M611 478.4L652 427.6L597 416.7Z" fill="#979797" stroke="#979797"></path><path d="M652 427.6L671 391.7L664 386.9Z" fill="#f0f0f0" stroke="#f0f0f0"></path><path d="M664 386.9L671 391.7L670 322.7Z" fill="#6e6e6e" stroke="#6e6e6e"></path><path d="M598 489.3L611 478.4L562 486.6Z" fill="#6e6e6e" stroke="#6e6e6e"></path><path d="M168 210.1L158 226.1L168 224.3Z" fill="#979797" stroke="#979797"></path><path d="M152 362.7L174 396.9L228 300.9Z" fill="#b4b4b4" stroke="#b4b4b4"></path><path d="M201 408.6L208 477.4L260 458.6Z" fill="#979797" stroke="#979797"></path><path d="M152 362.7L228 300.9L167 307.9Z" fill="#e0e0e0" stroke="#e0e0e0"></path><path d="M552 28.9L554 79.6L563 85.9Z" fill="#f0f0f0" stroke="#f0f0f0"></path><path d="M513 39.9L501 17.9L442 102.7Z" fill="#f0f0f0" stroke="#f0f0f0"></path><path d="M287 535.1L268 456.3L250 517.4Z" fill="#f0f0f0" stroke="#f0f0f0"></path><path d="M330 531.3L353 600L399 551.3Z" fill="#f0f0f0" stroke="#f0f0f0"></path><path d="M676 231.3L674 161.3L599 234.4Z" fill="#c3c3c3" stroke="#c3c3c3"></path><path d="M645 141.7L658 128.6L631 136.4Z" fill="#d1d1d1" stroke="#d1d1d1"></path><path d="M696 183.6L674 161.3L676 231.3Z" fill="#6e6e6e" stroke="#6e6e6e"></path><path d="M674 161.3L671 154.6L645 141.7Z" fill="#ffffff" stroke="#ffffff"></path><path d="M174 396.9L181 423.7L201 408.6Z" fill="#f0f0f0" stroke="#f0f0f0"></path><path d="M430 600L439 563.1L399 551.3Z" fill="#d1d1d1" stroke="#d1d1d1"></path><path d="M399 551.3L439 563.1L394 536.1Z" fill="#e0e0e0" stroke="#e0e0e0"></path><path d="M509 530.3L569 527.3L551 490.4Z" fill="#ffffff" stroke="#ffffff"></path><path d="M245 0L209 101.6L300 80.7Z" fill="#d1d1d1" stroke="#d1d1d1"></path><path d="M145 121.4L151 207.4L168 210.1Z" fill="#b4b4b4" stroke="#b4b4b4"></path><path d="M168 210.1L151 207.4L158 226.1Z" fill="#b4b4b4" stroke="#b4b4b4"></path><path d="M671 154.6L658 128.6L645 141.7Z" fill="#7b7b7b" stroke="#7b7b7b"></path><path d="M142 316.7L152 362.7L167 307.9Z" fill="#898989" stroke="#898989"></path><path d="M174 396.9L130 442.6L181 423.7Z" fill="#6e6e6e" stroke="#6e6e6e"></path><path d="M145 121.4L168 210.1L220 130.6Z" fill="#b4b4b4" stroke="#b4b4b4"></path><path d="M140 278L167 307.9L171 273Z" fill="#f0f0f0" stroke="#f0f0f0"></path><path d="M140 278L171 273L158 226.1Z" fill="#979797" stroke="#979797"></path><path d="M128 273L140 278L158 226.1Z" fill="#b4b4b4" stroke="#b4b4b4"></path><path d="M455 0L430 0L408 25.7Z" fill="#f0f0f0" stroke="#f0f0f0"></path><path d="M408 25.7L394 0L385 65.9Z" fill="#d1d1d1" stroke="#d1d1d1"></path><path d="M678 118.4L661 128.4L671 154.6Z" fill="#979797" stroke="#979797"></path><path d="M671 154.6L661 128.4L658 128.6Z" fill="#c3c3c3" stroke="#c3c3c3"></path><path d="M640 85.7L563 85.9L569 92.7Z" fill="#ffffff" stroke="#ffffff"></path><path d="M568 548.1L569 527.3L509 530.3Z" fill="#7b7b7b" stroke="#7b7b7b"></path><path d="M646 490.1L660 471.6L611 478.4Z" fill="#c3c3c3" stroke="#c3c3c3"></path><path d="M430 0L394 0L408 25.7Z" fill="#979797" stroke="#979797"></path><path d="M203 11.9L197 93.7L209 101.6Z" fill="#7b7b7b" stroke="#7b7b7b"></path><path d="M501 17.9L455 0L442 102.7Z" fill="#ffffff" stroke="#ffffff"></path><path d="M640 85.7L631 136.4L658 128.6Z" fill="#e0e0e0" stroke="#e0e0e0"></path><path d="M501 17.9L527 0L455 0Z" fill="#6e6e6e" stroke="#6e6e6e"></path><path d="M250 517.4L268 456.3L260 458.6Z" fill="#e0e0e0" stroke="#e0e0e0"></path><path d="M353 600L430 600L399 551.3Z" fill="#b4b4b4" stroke="#b4b4b4"></path><path d="M181 423.7L208 477.4L201 408.6Z" fill="#6e6e6e" stroke="#6e6e6e"></path><path d="M714 160.6L678 118.4L671 154.6Z" fill="#979797" stroke="#979797"></path><path d="M721 214.4L696 183.6L676 231.3Z" fill="#b4b4b4" stroke="#b4b4b4"></path><path d="M721 214.4L676 231.3L736 233Z" fill="#d1d1d1" stroke="#d1d1d1"></path><path d="M208 477.4L250 517.4L260 458.6Z" fill="#b4b4b4" stroke="#b4b4b4"></path><path d="M678 118.4L640 85.7L658 128.6Z" fill="#f0f0f0" stroke="#f0f0f0"></path><path d="M678 118.4L658 128.6L661 128.4Z" fill="#979797" stroke="#979797"></path><path d="M245 0L300 80.7L306 51.9Z" fill="#c3c3c3" stroke="#c3c3c3"></path><path d="M209 101.6L197 93.7L220 130.6Z" fill="#b4b4b4" stroke="#b4b4b4"></path><path d="M113 238.1L128 273L158 226.1Z" fill="#a6a6a6" stroke="#a6a6a6"></path><path d="M140 278L123 309.1L142 316.7Z" fill="#898989" stroke="#898989"></path><path d="M142 316.7L129 334L152 362.7Z" fill="#e0e0e0" stroke="#e0e0e0"></path><path d="M394 0L335 0L358 70.6Z" fill="#898989" stroke="#898989"></path><path d="M439 563.1L494 573.1L509 530.3Z" fill="#c3c3c3" stroke="#c3c3c3"></path><path d="M123 309.1L129 334L142 316.7Z" fill="#898989" stroke="#898989"></path><path d="M128 477.3L208 477.4L181 423.7Z" fill="#d1d1d1" stroke="#d1d1d1"></path><path d="M128 477.3L188 512.4L208 477.4Z" fill="#ffffff" stroke="#ffffff"></path><path d="M128 273L123 309.1L140 278Z" fill="#c3c3c3" stroke="#c3c3c3"></path><path d="M522 581.1L568 548.1L509 530.3Z" fill="#6e6e6e" stroke="#6e6e6e"></path><path d="M569 527.3L637 498.4L598 489.3Z" fill="#7b7b7b" stroke="#7b7b7b"></path><path d="M611 478.4L660 471.6L652 427.6Z" fill="#d1d1d1" stroke="#d1d1d1"></path><path d="M575 0L527 0L552 28.9Z" fill="#d1d1d1" stroke="#d1d1d1"></path><path d="M552 28.9L527 0L513 39.9Z" fill="#979797" stroke="#979797"></path><path d="M652 427.6L709 443.7L671 391.7Z" fill="#7b7b7b" stroke="#7b7b7b"></path><path d="M637 498.4L611 478.4L598 489.3Z" fill="#e0e0e0" stroke="#e0e0e0"></path><path d="M568 548.1L637 498.4L569 527.3Z" fill="#7b7b7b" stroke="#7b7b7b"></path><path d="M714 160.6L671 154.6L674 161.3Z" fill="#6e6e6e" stroke="#6e6e6e"></path><path d="M637 498.4L646 490.1L611 478.4Z" fill="#898989" stroke="#898989"></path><path d="M335 0L310 0L306 51.9Z" fill="#d1d1d1" stroke="#d1d1d1"></path><path d="M736 233L681 302.1L752 296Z" fill="#7b7b7b" stroke="#7b7b7b"></path><path d="M736 233L676 231.3L681 302.1Z" fill="#7b7b7b" stroke="#7b7b7b"></path><path d="M696 183.6L714 160.6L674 161.3Z" fill="#6e6e6e" stroke="#6e6e6e"></path><path d="M721 214.4L721 198.3L696 183.6Z" fill="#898989" stroke="#898989"></path><path d="M310 0L291 0L306 51.9Z" fill="#979797" stroke="#979797"></path><path d="M151 207.4L113 238.1L158 226.1Z" fill="#ffffff" stroke="#ffffff"></path><path d="M128 273L33 276L123 309.1Z" fill="#7b7b7b" stroke="#7b7b7b"></path><path d="M104 226.3L113 238.1L151 207.4Z" fill="#ffffff" stroke="#ffffff"></path><path d="M513 600L522 581.1L494 573.1Z" fill="#979797" stroke="#979797"></path><path d="M494 573.1L522 581.1L509 530.3Z" fill="#f0f0f0" stroke="#f0f0f0"></path><path d="M430 600L494 573.1L439 563.1Z" fill="#c3c3c3" stroke="#c3c3c3"></path><path d="M721 198.3L714 160.6L696 183.6Z" fill="#e0e0e0" stroke="#e0e0e0"></path><path d="M301 578.1L330 531.3L309 537.4Z" fill="#f0f0f0" stroke="#f0f0f0"></path><path d="M681 302.1L670 322.7L749 349.9Z" fill="#6e6e6e" stroke="#6e6e6e"></path><path d="M721 214.4L768 216.3L721 198.3Z" fill="#b4b4b4" stroke="#b4b4b4"></path><path d="M721 198.3L771 140.6L714 160.6Z" fill="#a6a6a6" stroke="#a6a6a6"></path><path d="M232 571.3L301 578.1L287 535.1Z" fill="#979797" stroke="#979797"></path><path d="M287 535.1L301 578.1L309 537.4Z" fill="#c3c3c3" stroke="#c3c3c3"></path><path d="M296 600L301 578.1L239 600Z" fill="#979797" stroke="#979797"></path><path d="M639 19.9L563 85.9L640 85.7Z" fill="#898989" stroke="#898989"></path><path d="M618 0L575 0L552 28.9Z" fill="#f0f0f0" stroke="#f0f0f0"></path><path d="M156 75.9L145 121.4L197 93.7Z" fill="#898989" stroke="#898989"></path><path d="M197 93.7L145 121.4L220 130.6Z" fill="#898989" stroke="#898989"></path><path d="M107 135.7L104 226.3L151 207.4Z" fill="#f0f0f0" stroke="#f0f0f0"></path><path d="M113 238.1L33 276L128 273Z" fill="#7b7b7b" stroke="#7b7b7b"></path><path d="M301 578.1L353 600L330 531.3Z" fill="#ffffff" stroke="#ffffff"></path><path d="M678 118.4L664 61.9L640 85.7Z" fill="#ffffff" stroke="#ffffff"></path><path d="M672 33.9L664 61.9L737 76.7Z" fill="#ffffff" stroke="#ffffff"></path><path d="M712 488.4L709 443.7L660 471.6Z" fill="#7b7b7b" stroke="#7b7b7b"></path><path d="M660 471.6L709 443.7L652 427.6Z" fill="#ffffff" stroke="#ffffff"></path><path d="M712 488.4L660 471.6L646 490.1Z" fill="#898989" stroke="#898989"></path><path d="M108 395.7L174 396.9L152 362.7Z" fill="#7b7b7b" stroke="#7b7b7b"></path><path d="M208 477.4L188 512.4L250 517.4Z" fill="#979797" stroke="#979797"></path><path d="M430 600L513 600L494 573.1Z" fill="#f0f0f0" stroke="#f0f0f0"></path><path d="M522 581.1L608 600L568 548.1Z" fill="#a6a6a6" stroke="#a6a6a6"></path><path d="M681 538.1L646 490.1L637 498.4Z" fill="#898989" stroke="#898989"></path><path d="M681 538.1L712 488.4L646 490.1Z" fill="#f0f0f0" stroke="#f0f0f0"></path><path d="M749 349.9L670 322.7L671 391.7Z" fill="#6e6e6e" stroke="#6e6e6e"></path><path d="M101 367.9L104 368.9L129 334Z" fill="#d1d1d1" stroke="#d1d1d1"></path><path d="M129 334L104 368.9L152 362.7Z" fill="#b4b4b4" stroke="#b4b4b4"></path><path d="M101 367.9L129 334L123 309.1Z" fill="#c3c3c3" stroke="#c3c3c3"></path><path d="M513 600L519 600L522 581.1Z" fill="#a6a6a6" stroke="#a6a6a6"></path><path d="M739 401.7L749 349.9L671 391.7Z" fill="#ffffff" stroke="#ffffff"></path><path d="M33 276L101 367.9L123 309.1Z" fill="#d1d1d1" stroke="#d1d1d1"></path><path d="M126 440.7L130 442.6L174 396.9Z" fill="#f0f0f0" stroke="#f0f0f0"></path><path d="M108 395.7L152 362.7L104 368.9Z" fill="#f0f0f0" stroke="#f0f0f0"></path><path d="M101 367.9L108 395.7L104 368.9Z" fill="#c3c3c3" stroke="#c3c3c3"></path><path d="M291 0L245 0L306 51.9Z" fill="#e0e0e0" stroke="#e0e0e0"></path><path d="M245 0L243 0L209 101.6Z" fill="#c3c3c3" stroke="#c3c3c3"></path><path d="M108 395.7L126 440.7L174 396.9Z" fill="#d1d1d1" stroke="#d1d1d1"></path><path d="M130 442.6L128 477.3L181 423.7Z" fill="#e0e0e0" stroke="#e0e0e0"></path><path d="M121 130.7L121 134.6L145 121.4Z" fill="#d1d1d1" stroke="#d1d1d1"></path><path d="M145 121.4L121 134.6L151 207.4Z" fill="#ffffff" stroke="#ffffff"></path><path d="M709 443.7L739 401.7L671 391.7Z" fill="#979797" stroke="#979797"></path><path d="M304 600L306 600L301 578.1Z" fill="#898989" stroke="#898989"></path><path d="M301 578.1L306 600L353 600Z" fill="#979797" stroke="#979797"></path><path d="M296 600L304 600L301 578.1Z" fill="#979797" stroke="#979797"></path><path d="M203 11.9L156 75.9L197 93.7Z" fill="#979797" stroke="#979797"></path><path d="M127 109.7L121 130.7L145 121.4Z" fill="#b4b4b4" stroke="#b4b4b4"></path><path d="M121 134.6L107 135.7L151 207.4Z" fill="#ffffff" stroke="#ffffff"></path><path d="M310 0L281 -24.1L291 0Z" fill="#6e6e6e" stroke="#6e6e6e"></path><path d="M291 0L281 -24.1L245 0Z" fill="#7b7b7b" stroke="#7b7b7b"></path><path d="M245 0L281 -24.1L243 0Z" fill="#979797" stroke="#979797"></path><path d="M335 0L281 -24.1L310 0Z" fill="#e0e0e0" stroke="#e0e0e0"></path><path d="M394 0L281 -24.1L335 0Z" fill="#e0e0e0" stroke="#e0e0e0"></path><path d="M430 0L281 -24.1L394 0Z" fill="#ffffff" stroke="#ffffff"></path><path d="M455 0L281 -24.1L430 0Z" fill="#c3c3c3" stroke="#c3c3c3"></path><path d="M527 0L281 -24.1L455 0Z" fill="#a6a6a6" stroke="#a6a6a6"></path><path d="M703 -19.1L281 -24.1L527 0Z" fill="#b4b4b4" stroke="#b4b4b4"></path><path d="M156 75.9L134 105.7L145 121.4Z" fill="#979797" stroke="#979797"></path><path d="M664 61.9L639 19.9L640 85.7Z" fill="#979797" stroke="#979797"></path><path d="M232 571.3L287 535.1L250 517.4Z" fill="#b4b4b4" stroke="#b4b4b4"></path><path d="M156 75.9L127 109.7L134 105.7Z" fill="#898989" stroke="#898989"></path><path d="M134 105.7L127 109.7L145 121.4Z" fill="#979797" stroke="#979797"></path><path d="M639 19.9L618 0L552 28.9Z" fill="#979797" stroke="#979797"></path><path d="M575 0L703 -19.1L527 0Z" fill="#7b7b7b" stroke="#7b7b7b"></path><path d="M239 600L232 571.3L160 588.1Z" fill="#898989" stroke="#898989"></path><path d="M188 512.4L232 571.3L250 517.4Z" fill="#e0e0e0" stroke="#e0e0e0"></path><path d="M281 -24.1L220 0.9L243 0Z" fill="#6e6e6e" stroke="#6e6e6e"></path><path d="M243 0L203 11.9L209 101.6Z" fill="#7b7b7b" stroke="#7b7b7b"></path><path d="M77 0L100 120.4L127 109.7Z" fill="#a6a6a6" stroke="#a6a6a6"></path><path d="M100 120.4L107 135.7L121 130.7Z" fill="#d1d1d1" stroke="#d1d1d1"></path><path d="M121 130.7L107 135.7L121 134.6Z" fill="#7b7b7b" stroke="#7b7b7b"></path><path d="M220 0.9L203 11.9L243 0Z" fill="#b4b4b4" stroke="#b4b4b4"></path><path d="M108 395.7L96 408.6L126 440.7Z" fill="#c3c3c3" stroke="#c3c3c3"></path><path d="M126 440.7L128 477.3L130 442.6Z" fill="#6e6e6e" stroke="#6e6e6e"></path><path d="M101 367.9L96 408.6L108 395.7Z" fill="#e0e0e0" stroke="#e0e0e0"></path><path d="M0 389.9L96 408.6L101 367.9Z" fill="#c3c3c3" stroke="#c3c3c3"></path><path d="M33 276L113 238.1L104 226.3Z" fill="#898989" stroke="#898989"></path><path d="M797 248.3L768 216.3L736 233Z" fill="#d1d1d1" stroke="#d1d1d1"></path><path d="M736 233L768 216.3L721 214.4Z" fill="#ffffff" stroke="#ffffff"></path><path d="M737 76.7L664 61.9L678 118.4Z" fill="#7b7b7b" stroke="#7b7b7b"></path><path d="M664 61.9L672 33.9L639 19.9Z" fill="#7b7b7b" stroke="#7b7b7b"></path><path d="M797 248.3L736 233L752 296Z" fill="#ffffff" stroke="#ffffff"></path><path d="M737 76.7L678 118.4L714 160.6Z" fill="#7b7b7b" stroke="#7b7b7b"></path><path d="M639 19.9L653 0L618 0Z" fill="#b4b4b4" stroke="#b4b4b4"></path><path d="M772 366.6L769 354L749 349.9Z" fill="#ffffff" stroke="#ffffff"></path><path d="M749 349.9L769 354L752 296Z" fill="#a6a6a6" stroke="#a6a6a6"></path><path d="M115 490.6L128 477.3L126 440.7Z" fill="#7b7b7b" stroke="#7b7b7b"></path><path d="M709 443.7L731 464.3L739 401.7Z" fill="#979797" stroke="#979797"></path><path d="M739 401.7L772 366.6L749 349.9Z" fill="#f0f0f0" stroke="#f0f0f0"></path><path d="M681 538.1L637 498.4L663 587.1Z" fill="#6e6e6e" stroke="#6e6e6e"></path><path d="M712 488.4L731 464.3L709 443.7Z" fill="#b4b4b4" stroke="#b4b4b4"></path><path d="M816 465.4L772 366.6L739 401.7Z" fill="#f0f0f0" stroke="#f0f0f0"></path><path d="M808 282.9L797 248.3L752 296Z" fill="#ffffff" stroke="#ffffff"></path><path d="M281 -24.1L200 0L220 0.9Z" fill="#979797" stroke="#979797"></path><path d="M220 0.9L200 0L203 11.9Z" fill="#a6a6a6" stroke="#a6a6a6"></path><path d="M203 11.9L200 0L156 75.9Z" fill="#b4b4b4" stroke="#b4b4b4"></path><path d="M127 109.7L100 120.4L121 130.7Z" fill="#e0e0e0" stroke="#e0e0e0"></path><path d="M12 134.6L0 82.7L-7 105.4Z" fill="#6e6e6e" stroke="#6e6e6e"></path><path d="M107 135.7L65 172.3L104 226.3Z" fill="#c3c3c3" stroke="#c3c3c3"></path><path d="M613 600L637 498.4L568 548.1Z" fill="#d1d1d1" stroke="#d1d1d1"></path><path d="M712 488.4L759 482.6L731 464.3Z" fill="#979797" stroke="#979797"></path><path d="M672 33.9L653 0L639 19.9Z" fill="#c3c3c3" stroke="#c3c3c3"></path><path d="M618 0L703 -19.1L575 0Z" fill="#898989" stroke="#898989"></path><path d="M160 588.1L232 571.3L188 512.4Z" fill="#898989" stroke="#898989"></path><path d="M232 571.3L239 600L301 578.1Z" fill="#f0f0f0" stroke="#f0f0f0"></path><path d="M519 600L608 600L522 581.1Z" fill="#7b7b7b" stroke="#7b7b7b"></path><path d="M608 600L613 600L568 548.1Z" fill="#7b7b7b" stroke="#7b7b7b"></path><path d="M92 500.4L115 490.6L126 440.7Z" fill="#e0e0e0" stroke="#e0e0e0"></path><path d="M128 477.3L119 527.3L188 512.4Z" fill="#e0e0e0" stroke="#e0e0e0"></path><path d="M100 120.4L65 172.3L107 135.7Z" fill="#979797" stroke="#979797"></path><path d="M808 282.9L752 296L820 321.1Z" fill="#f0f0f0" stroke="#f0f0f0"></path><path d="M771 140.6L737 76.7L714 160.6Z" fill="#b4b4b4" stroke="#b4b4b4"></path><path d="M672 33.9L672 0L653 0Z" fill="#6e6e6e" stroke="#6e6e6e"></path><path d="M771 140.6L721 198.3L768 216.3Z" fill="#ffffff" stroke="#ffffff"></path><path d="M808 149.7L771 140.6L768 216.3Z" fill="#d1d1d1" stroke="#d1d1d1"></path><path d="M703 -19.1L672 0L672 33.9Z" fill="#898989" stroke="#898989"></path><path d="M653 0L703 -19.1L618 0Z" fill="#979797" stroke="#979797"></path><path d="M65 172.3L55 190.6L104 226.3Z" fill="#d1d1d1" stroke="#d1d1d1"></path><path d="M820 321.1L752 296L769 354Z" fill="#979797" stroke="#979797"></path><path d="M797 248.3L815 225.1L768 216.3Z" fill="#e0e0e0" stroke="#e0e0e0"></path><path d="M820 321.1L769 354L821 351.7Z" fill="#e0e0e0" stroke="#e0e0e0"></path><path d="M613 600L663 587.1L637 498.4Z" fill="#7b7b7b" stroke="#7b7b7b"></path><path d="M738 526.3L759 482.6L712 488.4Z" fill="#d1d1d1" stroke="#d1d1d1"></path><path d="M663 587.1L672 581.3L681 538.1Z" fill="#979797" stroke="#979797"></path><path d="M115 490.6L119 527.3L128 477.3Z" fill="#c3c3c3" stroke="#c3c3c3"></path><path d="M101 527.3L119 527.3L115 490.6Z" fill="#a6a6a6" stroke="#a6a6a6"></path><path d="M55 190.6L33 276L104 226.3Z" fill="#d1d1d1" stroke="#d1d1d1"></path><path d="M38 467.4L92 500.4L126 440.7Z" fill="#6e6e6e" stroke="#6e6e6e"></path><path d="M738 526.3L712 488.4L681 538.1Z" fill="#ffffff" stroke="#ffffff"></path><path d="M731 464.3L759 482.6L739 401.7Z" fill="#d1d1d1" stroke="#d1d1d1"></path><path d="M38 467.4L126 440.7L96 408.6Z" fill="#f0f0f0" stroke="#f0f0f0"></path><path d="M825 284.9L815 225.1L797 248.3Z" fill="#d1d1d1" stroke="#d1d1d1"></path><path d="M737 532.4L738 526.3L681 538.1Z" fill="#a6a6a6" stroke="#a6a6a6"></path><path d="M821 351.7L769 354L772 366.6Z" fill="#6e6e6e" stroke="#6e6e6e"></path><path d="M808 282.9L825 284.9L797 248.3Z" fill="#f0f0f0" stroke="#f0f0f0"></path><path d="M773 515.4L771 487.4L759 482.6Z" fill="#7b7b7b" stroke="#7b7b7b"></path><path d="M741 558.3L737 532.4L681 538.1Z" fill="#7b7b7b" stroke="#7b7b7b"></path><path d="M820 321.1L825 284.9L808 282.9Z" fill="#c3c3c3" stroke="#c3c3c3"></path><path d="M142 579.1L188 512.4L119 527.3Z" fill="#e0e0e0" stroke="#e0e0e0"></path><path d="M142 579.1L160 588.1L188 512.4Z" fill="#ffffff" stroke="#ffffff"></path><path d="M663 587.1L672 600L672 581.3Z" fill="#f0f0f0" stroke="#f0f0f0"></path><path d="M672 581.3L741 558.3L681 538.1Z" fill="#979797" stroke="#979797"></path><path d="M613 600L672 600L663 587.1Z" fill="#979797" stroke="#979797"></path><path d="M773 515.4L759 482.6L738 526.3Z" fill="#d1d1d1" stroke="#d1d1d1"></path><path d="M759 482.6L795 480.6L739 401.7Z" fill="#6e6e6e" stroke="#6e6e6e"></path><path d="M816 465.4L821 351.7L772 366.6Z" fill="#a6a6a6" stroke="#a6a6a6"></path><path d="M820 321.1L847 317L825 284.9Z" fill="#e0e0e0" stroke="#e0e0e0"></path><path d="M92 500.4L101 527.3L115 490.6Z" fill="#979797" stroke="#979797"></path><path d="M772 35.7L755 43.9L737 76.7Z" fill="#e0e0e0" stroke="#e0e0e0"></path><path d="M737 76.7L755 43.9L672 33.9Z" fill="#7b7b7b" stroke="#7b7b7b"></path><path d="M832 203.1L808 149.7L768 216.3Z" fill="#a6a6a6" stroke="#a6a6a6"></path><path d="M832 203.1L768 216.3L815 225.1Z" fill="#e0e0e0" stroke="#e0e0e0"></path><path d="M112 572.1L142 579.1L119 527.3Z" fill="#7b7b7b" stroke="#7b7b7b"></path><path d="M806 135.6L737 76.7L771 140.6Z" fill="#ffffff" stroke="#ffffff"></path><path d="M808 149.7L806 135.6L771 140.6Z" fill="#f0f0f0" stroke="#f0f0f0"></path><path d="M755 43.9L703 -19.1L672 33.9Z" fill="#b4b4b4" stroke="#b4b4b4"></path><path d="M672 0L703 -19.1L653 0Z" fill="#ffffff" stroke="#ffffff"></path><path d="M672 600L691 600L672 581.3Z" fill="#c3c3c3" stroke="#c3c3c3"></path><path d="M737 532.4L773 515.4L738 526.3Z" fill="#979797" stroke="#979797"></path><path d="M147 600L160 588.1L142 579.1Z" fill="#c3c3c3" stroke="#c3c3c3"></path><path d="M147 600L155 600L160 588.1Z" fill="#6e6e6e" stroke="#6e6e6e"></path><path d="M160 588.1L155 600L239 600Z" fill="#b4b4b4" stroke="#b4b4b4"></path><path d="M832 203.1L815 225.1L900 225.4Z" fill="#c3c3c3" stroke="#c3c3c3"></path><path d="M851 194.3L832 203.1L900 225.4Z" fill="#a6a6a6" stroke="#a6a6a6"></path><path d="M859 155.4L830 106.4L806 135.6Z" fill="#898989" stroke="#898989"></path><path d="M741 558.3L773 515.4L737 532.4Z" fill="#b4b4b4" stroke="#b4b4b4"></path><path d="M771 487.4L795 480.6L759 482.6Z" fill="#f0f0f0" stroke="#f0f0f0"></path><path d="M112 572.1L147 600L142 579.1Z" fill="#e0e0e0" stroke="#e0e0e0"></path><path d="M691 600L741 558.3L672 581.3Z" fill="#f0f0f0" stroke="#f0f0f0"></path><path d="M773 515.4L795 480.6L771 487.4Z" fill="#a6a6a6" stroke="#a6a6a6"></path><path d="M0 196.3L0 308.1L33 276Z" fill="#d1d1d1" stroke="#d1d1d1"></path><path d="M33 276L0 323L101 367.9Z" fill="#b4b4b4" stroke="#b4b4b4"></path><path d="M82 537.1L112 572.1L101 527.3Z" fill="#ffffff" stroke="#ffffff"></path><path d="M101 527.3L112 572.1L119 527.3Z" fill="#6e6e6e" stroke="#6e6e6e"></path><path d="M82 537.1L101 527.3L92 500.4Z" fill="#ffffff" stroke="#ffffff"></path><path d="M0 308.1L0 323L33 276Z" fill="#6e6e6e" stroke="#6e6e6e"></path><path d="M26 483.6L82 537.1L92 500.4Z" fill="#f0f0f0" stroke="#f0f0f0"></path><path d="M873 368L847 317L821 351.7Z" fill="#7b7b7b" stroke="#7b7b7b"></path><path d="M821 351.7L847 317L820 321.1Z" fill="#e0e0e0" stroke="#e0e0e0"></path><path d="M0 389.9L38 467.4L96 408.6Z" fill="#ffffff" stroke="#ffffff"></path><path d="M830 106.4L772 35.7L737 76.7Z" fill="#6e6e6e" stroke="#6e6e6e"></path><path d="M755 43.9L779 0L703 -19.1Z" fill="#d1d1d1" stroke="#d1d1d1"></path><path d="M830 106.4L737 76.7L806 135.6Z" fill="#6e6e6e" stroke="#6e6e6e"></path><path d="M0 156.4L0 196.3L55 190.6Z" fill="#e0e0e0" stroke="#e0e0e0"></path><path d="M55 190.6L0 196.3L33 276Z" fill="#979797" stroke="#979797"></path><path d="M0 156.4L55 190.6L65 172.3Z" fill="#6e6e6e" stroke="#6e6e6e"></path><path d="M12 134.6L65 172.3L100 120.4Z" fill="#e0e0e0" stroke="#e0e0e0"></path><path d="M0 323L0 371.7L101 367.9Z" fill="#f0f0f0" stroke="#f0f0f0"></path><path d="M833 497.1L816 465.4L795 480.6Z" fill="#b4b4b4" stroke="#b4b4b4"></path><path d="M795 480.6L816 465.4L739 401.7Z" fill="#a6a6a6" stroke="#a6a6a6"></path><path d="M833 497.1L795 480.6L773 515.4Z" fill="#b4b4b4" stroke="#b4b4b4"></path><path d="M0 308.1L-10 335.9L0 323Z" fill="#c3c3c3" stroke="#c3c3c3"></path><path d="M0 323L-10 335.9L0 371.7Z" fill="#6e6e6e" stroke="#6e6e6e"></path><path d="M0 196.3L-10 335.9L0 308.1Z" fill="#7b7b7b" stroke="#7b7b7b"></path><path d="M-10 335.9L0 389.9L0 371.7Z" fill="#f0f0f0" stroke="#f0f0f0"></path><path d="M0 371.7L0 389.9L101 367.9Z" fill="#e0e0e0" stroke="#e0e0e0"></path><path d="M900 225.4L815 225.1L825 284.9Z" fill="#979797" stroke="#979797"></path><path d="M832 203.1L851 194.3L808 149.7Z" fill="#7b7b7b" stroke="#7b7b7b"></path><path d="M77 0L127 109.7L156 75.9Z" fill="#898989" stroke="#898989"></path><path d="M12 134.6L0 156.4L65 172.3Z" fill="#f0f0f0" stroke="#f0f0f0"></path><path d="M0 196.3L-7 105.4L-10 335.9Z" fill="#979797" stroke="#979797"></path><path d="M859 155.4L806 135.6L808 149.7Z" fill="#898989" stroke="#898989"></path><path d="M10 468.3L26 483.6L38 467.4Z" fill="#7b7b7b" stroke="#7b7b7b"></path><path d="M38 467.4L26 483.6L92 500.4Z" fill="#6e6e6e" stroke="#6e6e6e"></path><path d="M82 537.1L77 600L112 572.1Z" fill="#c3c3c3" stroke="#c3c3c3"></path><path d="M281 -24.1L77 0L200 0Z" fill="#898989" stroke="#898989"></path><path d="M200 0L77 0L156 75.9Z" fill="#ffffff" stroke="#ffffff"></path><path d="M12 134.6L-7 105.4L0 156.4Z" fill="#7b7b7b" stroke="#7b7b7b"></path><path d="M0 389.9L10 468.3L38 467.4Z" fill="#a6a6a6" stroke="#a6a6a6"></path><path d="M74 600L77 600L82 537.1Z" fill="#a6a6a6" stroke="#a6a6a6"></path><path d="M0 465.4L10 468.3L0 389.9Z" fill="#e0e0e0" stroke="#e0e0e0"></path><path d="M851 194.3L859 155.4L808 149.7Z" fill="#f0f0f0" stroke="#f0f0f0"></path><path d="M869 135.7L859 155.4L900 213.3Z" fill="#6e6e6e" stroke="#6e6e6e"></path><path d="M782 0L772 35.7L803 0Z" fill="#e0e0e0" stroke="#e0e0e0"></path><path d="M782 0L779 0L772 35.7Z" fill="#d1d1d1" stroke="#d1d1d1"></path><path d="M772 35.7L779 0L755 43.9Z" fill="#a6a6a6" stroke="#a6a6a6"></path><path d="M803 0L772 35.7L855 69.9Z" fill="#b4b4b4" stroke="#b4b4b4"></path><path d="M779 0L782 0L703 -19.1Z" fill="#898989" stroke="#898989"></path><path d="M816 465.4L873 368L821 351.7Z" fill="#d1d1d1" stroke="#d1d1d1"></path><path d="M847 317L900 292.1L825 284.9Z" fill="#979797" stroke="#979797"></path><path d="M-10 335.9L0 465.4L0 389.9Z" fill="#c3c3c3" stroke="#c3c3c3"></path><path d="M10 468.3L0 502.3L26 483.6Z" fill="#979797" stroke="#979797"></path><path d="M-10 335.9L0 465.6L0 465.4Z" fill="#d1d1d1" stroke="#d1d1d1"></path><path d="M0 465.4L0 465.6L10 468.3Z" fill="#7b7b7b" stroke="#7b7b7b"></path><path d="M813 550.1L833 497.1L773 515.4Z" fill="#f0f0f0" stroke="#f0f0f0"></path><path d="M816 465.4L893 399.7L873 368Z" fill="#b4b4b4" stroke="#b4b4b4"></path><path d="M797 560.1L773 515.4L741 558.3Z" fill="#c3c3c3" stroke="#c3c3c3"></path><path d="M768 600L797 560.1L741 558.3Z" fill="#a6a6a6" stroke="#a6a6a6"></path><path d="M0 82.7L12 134.6L100 120.4Z" fill="#f0f0f0" stroke="#f0f0f0"></path><path d="M0 156.4L-7 105.4L0 196.3Z" fill="#c3c3c3" stroke="#c3c3c3"></path><path d="M691 600L768 600L741 558.3Z" fill="#a6a6a6" stroke="#a6a6a6"></path><path d="M0 78.6L0 82.7L100 120.4Z" fill="#b4b4b4" stroke="#b4b4b4"></path><path d="M74 600L82 537.1L16 588.1Z" fill="#7b7b7b" stroke="#7b7b7b"></path><path d="M112 572.1L77 600L147 600Z" fill="#ffffff" stroke="#ffffff"></path><path d="M900 213.3L859 155.4L851 194.3Z" fill="#979797" stroke="#979797"></path><path d="M859 155.4L869 135.7L830 106.4Z" fill="#b4b4b4" stroke="#b4b4b4"></path><path d="M8 42.9L0 78.6L100 120.4Z" fill="#c3c3c3" stroke="#c3c3c3"></path><path d="M0 82.7L0 78.6L-7 105.4Z" fill="#a6a6a6" stroke="#a6a6a6"></path><path d="M0 519.4L82 537.1L26 483.6Z" fill="#ffffff" stroke="#ffffff"></path><path d="M797 600L813 550.1L797 560.1Z" fill="#c3c3c3" stroke="#c3c3c3"></path><path d="M797 560.1L813 550.1L773 515.4Z" fill="#7b7b7b" stroke="#7b7b7b"></path><path d="M855 69.9L772 35.7L830 106.4Z" fill="#7b7b7b" stroke="#7b7b7b"></path><path d="M782 0L803 0L703 -19.1Z" fill="#7b7b7b" stroke="#7b7b7b"></path><path d="M-10 335.9L0 502.3L0 465.6Z" fill="#ffffff" stroke="#ffffff"></path><path d="M0 465.6L0 502.3L10 468.3Z" fill="#979797" stroke="#979797"></path><path d="M900 329.9L847 317L873 368Z" fill="#d1d1d1" stroke="#d1d1d1"></path><path d="M900 329.9L900 292.1L847 317Z" fill="#6e6e6e" stroke="#6e6e6e"></path><path d="M900 352L900 329.9L873 368Z" fill="#ffffff" stroke="#ffffff"></path><path d="M900 352L873 368L900 366.7Z" fill="#a6a6a6" stroke="#a6a6a6"></path><path d="M77 0L8 42.9L100 120.4Z" fill="#f0f0f0" stroke="#f0f0f0"></path><path d="M0 78.6L0 43.9L-7 105.4Z" fill="#c3c3c3" stroke="#c3c3c3"></path><path d="M900 292.1L900 225.4L825 284.9Z" fill="#6e6e6e" stroke="#6e6e6e"></path><path d="M893 399.7L816 465.4L900 406.6Z" fill="#898989" stroke="#898989"></path><path d="M900 75.6L855 69.9L869 135.7Z" fill="#898989" stroke="#898989"></path><path d="M869 135.7L855 69.9L830 106.4Z" fill="#7b7b7b" stroke="#7b7b7b"></path><path d="M900 225.4L900 213.3L851 194.3Z" fill="#b4b4b4" stroke="#b4b4b4"></path><path d="M768 600L787 600L797 560.1Z" fill="#e0e0e0" stroke="#e0e0e0"></path><path d="M900 406.6L816 465.4L833 497.1Z" fill="#ffffff" stroke="#ffffff"></path><path d="M900 406.6L833 497.1L900 505.3Z" fill="#e0e0e0" stroke="#e0e0e0"></path><path d="M893 399.7L900 366.7L873 368Z" fill="#e0e0e0" stroke="#e0e0e0"></path><path d="M-10 335.9L0 519.4L0 502.3Z" fill="#f0f0f0" stroke="#f0f0f0"></path><path d="M0 502.3L0 519.4L26 483.6Z" fill="#ffffff" stroke="#ffffff"></path><path d="M0 0L0 43.9L8 42.9Z" fill="#6e6e6e" stroke="#6e6e6e"></path><path d="M8 42.9L0 43.9L0 78.6Z" fill="#a6a6a6" stroke="#a6a6a6"></path><path d="M77 0L28 0L8 42.9Z" fill="#7b7b7b" stroke="#7b7b7b"></path><path d="M28 -3.1L28 0L77 0Z" fill="#a6a6a6" stroke="#a6a6a6"></path><path d="M281 -24.1L28 -3.1L77 0Z" fill="#6e6e6e" stroke="#6e6e6e"></path><path d="M28 0L0 0L8 42.9Z" fill="#b4b4b4" stroke="#b4b4b4"></path><path d="M787 600L797 600L797 560.1Z" fill="#898989" stroke="#898989"></path><path d="M-10 335.9L0 534.1L0 519.4Z" fill="#c3c3c3" stroke="#c3c3c3"></path><path d="M0 519.4L0 534.1L82 537.1Z" fill="#b4b4b4" stroke="#b4b4b4"></path><path d="M900 505.3L833 497.1L900 509.4Z" fill="#898989" stroke="#898989"></path><path d="M893 399.7L900 406.6L900 366.7Z" fill="#d1d1d1" stroke="#d1d1d1"></path><path d="M0 534.1L16 588.1L82 537.1Z" fill="#b4b4b4" stroke="#b4b4b4"></path><path d="M28 -3.1L0 0L28 0Z" fill="#f0f0f0" stroke="#f0f0f0"></path><path d="M0 43.9L0 0L-7 105.4Z" fill="#d1d1d1" stroke="#d1d1d1"></path><path d="M900 213.3L900 75.6L869 135.7Z" fill="#e0e0e0" stroke="#e0e0e0"></path><path d="M855 69.9L900 12.9L803 0Z" fill="#a6a6a6" stroke="#a6a6a6"></path><path d="M900 75.6L900 61.7L855 69.9Z" fill="#ffffff" stroke="#ffffff"></path><path d="M900 509.4L833 497.1L893 547.3Z" fill="#e0e0e0" stroke="#e0e0e0"></path><path d="M893 547.3L833 497.1L813 550.1Z" fill="#898989" stroke="#898989"></path><path d="M-10 335.9L0 600L0 534.1Z" fill="#a6a6a6" stroke="#a6a6a6"></path><path d="M0 534.1L0 600L16 588.1Z" fill="#898989" stroke="#898989"></path><path d="M16 588.1L0 600L74 600Z" fill="#c3c3c3" stroke="#c3c3c3"></path><path d="M900 600L893 547.3L813 550.1Z" fill="#979797" stroke="#979797"></path><path d="M900 600L900 545.1L893 547.3Z" fill="#e0e0e0" stroke="#e0e0e0"></path><path d="M893 547.3L900 545.1L900 509.4Z" fill="#c3c3c3" stroke="#c3c3c3"></path><path d="M900 61.7L900 12.9L855 69.9Z" fill="#d1d1d1" stroke="#d1d1d1"></path><path d="M803 0L900 0L703 -19.1Z" fill="#979797" stroke="#979797"></path><path d="M900 12.9L900 0L803 0Z" fill="#6e6e6e" stroke="#6e6e6e"></path><path d="M797 600L900 600L813 550.1Z" fill="#a6a6a6" stroke="#a6a6a6"></path></g></svg>