<svg id="visual" viewBox="0 0 900 600" width="900" height="600" xmlns="http://www.w3.org/2000/svg" xmlns:xlink="http://www.w3.org/1999/xlink" version="1.1"><g stroke-width="1" stroke-linejoin="bevel"><path d="M429 287L401 272.1L415 307.1Z" fill="#ff0000" stroke="#ff0000"></path><path d="M401 272.1L400 319L415 307.1Z" fill="#830013" stroke="#830013"></path><path d="M429 287L444 264.1L401 272.1Z" fill="#830013" stroke="#830013"></path><path d="M444 264.1L439 246L401 272.1Z" fill="#360000" stroke="#360000"></path><path d="M400 319L456 325.9L415 307.1Z" fill="#ac0014" stroke="#ac0014"></path><path d="M415 307.1L456 325.9L429 287Z" fill="#480008" stroke="#480008"></path><path d="M429 287L456 325.9L444 264.1Z" fill="#d5000f" stroke="#d5000f"></path><path d="M439 246L405 211.3L401 272.1Z" fill="#ac0014" stroke="#ac0014"></path><path d="M405 211.3L365 225.3L401 272.1Z" fill="#ea0009" stroke="#ea0009"></path><path d="M401 272.1L343 247.1L400 319Z" fill="#5b000e" stroke="#5b000e"></path><path d="M365 225.3L350 238.4L401 272.1Z" fill="#d5000f" stroke="#d5000f"></path><path d="M350 238.4L343 247.1L401 272.1Z" fill="#970014" stroke="#970014"></path><path d="M439 246L425 204.4L405 211.3Z" fill="#ea0009" stroke="#ea0009"></path><path d="M400 319L462 361.9L456 325.9Z" fill="#ac0014" stroke="#ac0014"></path><path d="M313 350.9L358 377.7L400 319Z" fill="#970014" stroke="#970014"></path><path d="M400 319L358 377.7L462 361.9Z" fill="#d5000f" stroke="#d5000f"></path><path d="M464 396.6L466 377.7L408 423.7Z" fill="#ff0000" stroke="#ff0000"></path><path d="M541 308.9L512 250.3L456 325.9Z" fill="#ff0000" stroke="#ff0000"></path><path d="M456 325.9L512 250.3L444 264.1Z" fill="#6f0012" stroke="#6f0012"></path><path d="M444 264.1L503 230.3L439 246Z" fill="#d5000f" stroke="#d5000f"></path><path d="M439 246L503 230.3L425 204.4Z" fill="#830013" stroke="#830013"></path><path d="M541 308.9L456 325.9L462 361.9Z" fill="#480008" stroke="#480008"></path><path d="M512 250.3L503 230.3L444 264.1Z" fill="#480008" stroke="#480008"></path><path d="M343 247.1L313 350.9L400 319Z" fill="#ac0014" stroke="#ac0014"></path><path d="M408 423.7L466 377.7L462 361.9Z" fill="#970014" stroke="#970014"></path><path d="M550 382.6L541 308.9L462 361.9Z" fill="#ea0009" stroke="#ea0009"></path><path d="M284 235.4L288 264.1L343 247.1Z" fill="#6f0012" stroke="#6f0012"></path><path d="M343 247.1L288 264.1L313 350.9Z" fill="#6f0012" stroke="#6f0012"></path><path d="M322 186.6L343 247.1L350 238.4Z" fill="#830013" stroke="#830013"></path><path d="M369 407.9L370 407.7L358 377.7Z" fill="#c00012" stroke="#c00012"></path><path d="M358 377.7L408 423.7L462 361.9Z" fill="#970014" stroke="#970014"></path><path d="M278 367L369 407.9L358 377.7Z" fill="#5b000e" stroke="#5b000e"></path><path d="M370 407.7L408 423.7L358 377.7Z" fill="#480008" stroke="#480008"></path><path d="M550 382.6L462 361.9L466 377.7Z" fill="#970014" stroke="#970014"></path><path d="M512 250.3L516 200.3L503 230.3Z" fill="#970014" stroke="#970014"></path><path d="M369 437.6L408 423.7L370 407.7Z" fill="#ff0000" stroke="#ff0000"></path><path d="M347 160.6L322 186.6L365 225.3Z" fill="#6f0012" stroke="#6f0012"></path><path d="M365 225.3L322 186.6L350 238.4Z" fill="#ff0000" stroke="#ff0000"></path><path d="M347 160.6L365 225.3L405 211.3Z" fill="#ac0014" stroke="#ac0014"></path><path d="M322 186.6L284 235.4L343 247.1Z" fill="#c00012" stroke="#c00012"></path><path d="M518 197.1L516 200.3L580 211.4Z" fill="#970014" stroke="#970014"></path><path d="M503 230.3L516 200.3L425 204.4Z" fill="#ea0009" stroke="#ea0009"></path><path d="M407 126.7L347 160.6L405 211.3Z" fill="#ea0009" stroke="#ea0009"></path><path d="M562 251L516 200.3L512 250.3Z" fill="#d5000f" stroke="#d5000f"></path><path d="M516 200.3L518 197.1L425 204.4Z" fill="#ff0000" stroke="#ff0000"></path><path d="M407 126.7L405 211.3L425 204.4Z" fill="#480008" stroke="#480008"></path><path d="M240 264.1L269 311.9L288 264.1Z" fill="#ff0000" stroke="#ff0000"></path><path d="M288 264.1L269 311.9L313 350.9Z" fill="#480008" stroke="#480008"></path><path d="M313 350.9L278 367L358 377.7Z" fill="#970014" stroke="#970014"></path><path d="M347 160.6L318 179.3L322 186.6Z" fill="#480008" stroke="#480008"></path><path d="M322 186.6L318 179.3L284 235.4Z" fill="#480008" stroke="#480008"></path><path d="M269 311.9L279 355L313 350.9Z" fill="#360000" stroke="#360000"></path><path d="M218 366.6L278 367L279 355Z" fill="#6f0012" stroke="#6f0012"></path><path d="M279 355L278 367L313 350.9Z" fill="#360000" stroke="#360000"></path><path d="M279 469.4L369 437.6L369 407.9Z" fill="#d5000f" stroke="#d5000f"></path><path d="M369 407.9L369 437.6L370 407.7Z" fill="#c00012" stroke="#c00012"></path><path d="M541 308.9L566 277.3L512 250.3Z" fill="#5b000e" stroke="#5b000e"></path><path d="M566 277.3L562 251L512 250.3Z" fill="#5b000e" stroke="#5b000e"></path><path d="M400 457.3L412 448.4L408 423.7Z" fill="#ac0014" stroke="#ac0014"></path><path d="M408 423.7L423 452.6L464 396.6Z" fill="#970014" stroke="#970014"></path><path d="M428 109.6L407 126.7L457 111.7Z" fill="#970014" stroke="#970014"></path><path d="M400 457.3L423 452.6L412 448.4Z" fill="#6f0012" stroke="#6f0012"></path><path d="M412 448.4L423 452.6L408 423.7Z" fill="#5b000e" stroke="#5b000e"></path><path d="M464 396.6L550 382.6L466 377.7Z" fill="#830013" stroke="#830013"></path><path d="M348 474.4L366 449.3L279 469.4Z" fill="#d5000f" stroke="#d5000f"></path><path d="M369 437.6L400 457.3L408 423.7Z" fill="#5b000e" stroke="#5b000e"></path><path d="M501 436.7L550 382.6L464 396.6Z" fill="#360000" stroke="#360000"></path><path d="M541 308.9L582 345.9L566 277.3Z" fill="#ff0000" stroke="#ff0000"></path><path d="M366 449.3L400 457.3L369 437.6Z" fill="#ea0009" stroke="#ea0009"></path><path d="M236 179.3L240 264.1L284 235.4Z" fill="#ac0014" stroke="#ac0014"></path><path d="M284 235.4L240 264.1L288 264.1Z" fill="#d5000f" stroke="#d5000f"></path><path d="M269 311.9L231 309.1L279 355Z" fill="#970014" stroke="#970014"></path><path d="M550 382.6L565 365.7L541 308.9Z" fill="#ac0014" stroke="#ac0014"></path><path d="M469 453.3L464 396.6L423 452.6Z" fill="#970014" stroke="#970014"></path><path d="M469 453.3L501 436.7L464 396.6Z" fill="#ac0014" stroke="#ac0014"></path><path d="M462 478.6L469 453.3L423 452.6Z" fill="#480008" stroke="#480008"></path><path d="M457 111.7L407 126.7L425 204.4Z" fill="#480008" stroke="#480008"></path><path d="M341 91.9L318 179.3L347 160.6Z" fill="#6f0012" stroke="#6f0012"></path><path d="M225 291.9L231 309.1L269 311.9Z" fill="#ea0009" stroke="#ea0009"></path><path d="M621 320.1L590 269L566 277.3Z" fill="#ac0014" stroke="#ac0014"></path><path d="M566 277.3L590 269L562 251Z" fill="#c00012" stroke="#c00012"></path><path d="M562 251L580 211.4L516 200.3Z" fill="#d5000f" stroke="#d5000f"></path><path d="M565 365.7L582 345.9L541 308.9Z" fill="#970014" stroke="#970014"></path><path d="M573 385.7L573 368.9L565 365.7Z" fill="#6f0012" stroke="#6f0012"></path><path d="M565 365.7L573 368.9L582 345.9Z" fill="#6f0012" stroke="#6f0012"></path><path d="M573 385.7L565 365.7L550 382.6Z" fill="#c00012" stroke="#c00012"></path><path d="M482 109.4L457 111.7L518 197.1Z" fill="#360000" stroke="#360000"></path><path d="M518 197.1L457 111.7L425 204.4Z" fill="#d5000f" stroke="#d5000f"></path><path d="M240 264.1L225 291.9L269 311.9Z" fill="#c00012" stroke="#c00012"></path><path d="M607 257.3L580 211.4L562 251Z" fill="#970014" stroke="#970014"></path><path d="M560 420.6L573 385.7L550 382.6Z" fill="#970014" stroke="#970014"></path><path d="M573 368.9L605 362L582 345.9Z" fill="#ea0009" stroke="#ea0009"></path><path d="M580 211.4L551 161.4L518 197.1Z" fill="#5b000e" stroke="#5b000e"></path><path d="M516 111.4L482 109.4L518 197.1Z" fill="#970014" stroke="#970014"></path><path d="M457 111.7L409 78.6L428 109.6Z" fill="#d5000f" stroke="#d5000f"></path><path d="M388 483.6L413 482.3L400 457.3Z" fill="#d5000f" stroke="#d5000f"></path><path d="M400 457.3L413 482.3L423 452.6Z" fill="#d5000f" stroke="#d5000f"></path><path d="M499 488.1L520 475.4L501 436.7Z" fill="#970014" stroke="#970014"></path><path d="M279 469.4L366 449.3L369 437.6Z" fill="#d5000f" stroke="#d5000f"></path><path d="M366 449.3L388 483.6L400 457.3Z" fill="#6f0012" stroke="#6f0012"></path><path d="M279 469.4L369 407.9L278 367Z" fill="#6f0012" stroke="#6f0012"></path><path d="M348 474.4L388 483.6L366 449.3Z" fill="#ff0000" stroke="#ff0000"></path><path d="M413 482.3L462 478.6L423 452.6Z" fill="#830013" stroke="#830013"></path><path d="M501 436.7L560 420.6L550 382.6Z" fill="#ff0000" stroke="#ff0000"></path><path d="M640 281.1L607 257.3L590 269Z" fill="#480008" stroke="#480008"></path><path d="M590 269L607 257.3L562 251Z" fill="#830013" stroke="#830013"></path><path d="M577 118.7L555 143.4L551 161.4Z" fill="#360000" stroke="#360000"></path><path d="M621 320.1L566 277.3L582 345.9Z" fill="#6f0012" stroke="#6f0012"></path><path d="M534 472.3L560 420.6L501 436.7Z" fill="#360000" stroke="#360000"></path><path d="M553 118.7L577 118.7L555 108.6Z" fill="#830013" stroke="#830013"></path><path d="M551 161.4L531 121.7L518 197.1Z" fill="#d5000f" stroke="#d5000f"></path><path d="M256 144.3L236 179.3L318 179.3Z" fill="#970014" stroke="#970014"></path><path d="M318 179.3L236 179.3L284 235.4Z" fill="#ff0000" stroke="#ff0000"></path><path d="M240 264.1L180 262.1L225 291.9Z" fill="#6f0012" stroke="#6f0012"></path><path d="M341 91.9L347 160.6L407 126.7Z" fill="#360000" stroke="#360000"></path><path d="M555 143.4L531 121.7L551 161.4Z" fill="#480008" stroke="#480008"></path><path d="M531 121.7L516 111.4L518 197.1Z" fill="#c00012" stroke="#c00012"></path><path d="M202 356.7L218 366.6L231 309.1Z" fill="#6f0012" stroke="#6f0012"></path><path d="M231 309.1L218 366.6L279 355Z" fill="#970014" stroke="#970014"></path><path d="M610 407.6L605 362L573 385.7Z" fill="#6f0012" stroke="#6f0012"></path><path d="M573 385.7L605 362L573 368.9Z" fill="#c00012" stroke="#c00012"></path><path d="M409 78.6L407 126.7L428 109.6Z" fill="#970014" stroke="#970014"></path><path d="M409 78.6L341 91.9L407 126.7Z" fill="#830013" stroke="#830013"></path><path d="M409 78.6L457 111.7L519 58.9Z" fill="#c00012" stroke="#c00012"></path><path d="M519 58.9L457 111.7L482 109.4Z" fill="#ea0009" stroke="#ea0009"></path><path d="M341 91.9L256 144.3L318 179.3Z" fill="#ea0009" stroke="#ea0009"></path><path d="M605 362L621 320.1L582 345.9Z" fill="#830013" stroke="#830013"></path><path d="M256 144.3L246 152.4L236 179.3Z" fill="#360000" stroke="#360000"></path><path d="M413 482.3L468 495.4L462 478.6Z" fill="#c00012" stroke="#c00012"></path><path d="M499 488.1L501 436.7L469 453.3Z" fill="#ff0000" stroke="#ff0000"></path><path d="M452 538.1L468 495.4L413 482.3Z" fill="#ac0014" stroke="#ac0014"></path><path d="M229 409.9L248 429.7L278 367Z" fill="#d5000f" stroke="#d5000f"></path><path d="M499 488.1L469 453.3L462 478.6Z" fill="#ff0000" stroke="#ff0000"></path><path d="M560 420.6L610 407.6L573 385.7Z" fill="#5b000e" stroke="#5b000e"></path><path d="M218 366.6L229 409.9L278 367Z" fill="#6f0012" stroke="#6f0012"></path><path d="M468 495.4L499 488.1L462 478.6Z" fill="#970014" stroke="#970014"></path><path d="M516 95.6L507 92.9L516 111.4Z" fill="#d5000f" stroke="#d5000f"></path><path d="M516 111.4L507 92.9L482 109.4Z" fill="#360000" stroke="#360000"></path><path d="M516 95.6L516 111.4L531 121.7Z" fill="#360000" stroke="#360000"></path><path d="M178 330.9L202 356.7L231 309.1Z" fill="#480008" stroke="#480008"></path><path d="M218 366.6L170 369.7L229 409.9Z" fill="#830013" stroke="#830013"></path><path d="M178 330.9L231 309.1L225 291.9Z" fill="#c00012" stroke="#c00012"></path><path d="M555 108.6L516 95.6L531 121.7Z" fill="#c00012" stroke="#c00012"></path><path d="M571 481.4L534 472.3L584 523.1Z" fill="#ff0000" stroke="#ff0000"></path><path d="M520 475.4L534 472.3L501 436.7Z" fill="#d5000f" stroke="#d5000f"></path><path d="M577 118.7L551 161.4L580 211.4Z" fill="#ea0009" stroke="#ea0009"></path><path d="M555 143.4L553 118.7L531 121.7Z" fill="#ff0000" stroke="#ff0000"></path><path d="M245 447.3L279 469.4L248 429.7Z" fill="#ea0009" stroke="#ea0009"></path><path d="M248 429.7L279 469.4L278 367Z" fill="#ff0000" stroke="#ff0000"></path><path d="M348 474.4L374 536.4L388 483.6Z" fill="#360000" stroke="#360000"></path><path d="M388 483.6L374 536.4L413 482.3Z" fill="#d5000f" stroke="#d5000f"></path><path d="M555 108.6L552 115.6L553 118.7Z" fill="#ac0014" stroke="#ac0014"></path><path d="M553 118.7L552 115.6L531 121.7Z" fill="#830013" stroke="#830013"></path><path d="M640 281.1L629 235.4L607 257.3Z" fill="#ac0014" stroke="#ac0014"></path><path d="M607 257.3L629 235.4L580 211.4Z" fill="#830013" stroke="#830013"></path><path d="M279 469.4L297 484.3L348 474.4Z" fill="#d5000f" stroke="#d5000f"></path><path d="M229 409.9L233 433.6L248 429.7Z" fill="#ac0014" stroke="#ac0014"></path><path d="M279 469.4L285 490.1L297 484.3Z" fill="#830013" stroke="#830013"></path><path d="M176 473.3L233 433.6L147 441.6Z" fill="#360000" stroke="#360000"></path><path d="M233 433.6L245 447.3L248 429.7Z" fill="#5b000e" stroke="#5b000e"></path><path d="M621 320.1L640 281.1L590 269Z" fill="#ea0009" stroke="#ea0009"></path><path d="M645 306L640 281.1L621 320.1Z" fill="#480008" stroke="#480008"></path><path d="M577 118.7L553 118.7L555 143.4Z" fill="#830013" stroke="#830013"></path><path d="M552 115.6L555 108.6L531 121.7Z" fill="#5b000e" stroke="#5b000e"></path><path d="M175 202.1L240 264.1L236 179.3Z" fill="#970014" stroke="#970014"></path><path d="M175 202.1L180 262.1L240 264.1Z" fill="#480008" stroke="#480008"></path><path d="M574 477.6L610 407.6L560 420.6Z" fill="#970014" stroke="#970014"></path><path d="M646 377.7L645 306L621 320.1Z" fill="#970014" stroke="#970014"></path><path d="M646 377.7L621 320.1L605 362Z" fill="#ac0014" stroke="#ac0014"></path><path d="M180 262.1L178 330.9L225 291.9Z" fill="#970014" stroke="#970014"></path><path d="M202 356.7L170 369.7L218 366.6Z" fill="#360000" stroke="#360000"></path><path d="M248 481.3L285 490.1L279 469.4Z" fill="#ea0009" stroke="#ea0009"></path><path d="M299 540.1L374 536.4L348 474.4Z" fill="#ea0009" stroke="#ea0009"></path><path d="M644 200.3L577 118.7L580 211.4Z" fill="#ea0009" stroke="#ea0009"></path><path d="M256 144.3L224 138.4L246 152.4Z" fill="#ea0009" stroke="#ea0009"></path><path d="M246 152.4L224 138.4L236 179.3Z" fill="#830013" stroke="#830013"></path><path d="M245 109.4L224 138.4L256 144.3Z" fill="#ea0009" stroke="#ea0009"></path><path d="M341 91.9L261 99.9L256 144.3Z" fill="#ea0009" stroke="#ea0009"></path><path d="M302 53.7L261 99.9L341 91.9Z" fill="#830013" stroke="#830013"></path><path d="M261 99.9L245 109.4L256 144.3Z" fill="#6f0012" stroke="#6f0012"></path><path d="M571 481.4L574 477.6L534 472.3Z" fill="#360000" stroke="#360000"></path><path d="M534 472.3L574 477.6L560 420.6Z" fill="#5b000e" stroke="#5b000e"></path><path d="M534 472.3L520 475.4L584 523.1Z" fill="#6f0012" stroke="#6f0012"></path><path d="M674 285.9L644 200.3L629 235.4Z" fill="#c00012" stroke="#c00012"></path><path d="M629 235.4L644 200.3L580 211.4Z" fill="#830013" stroke="#830013"></path><path d="M674 285.9L629 235.4L640 281.1Z" fill="#d5000f" stroke="#d5000f"></path><path d="M299 540.1L348 474.4L297 484.3Z" fill="#c00012" stroke="#c00012"></path><path d="M468 495.4L475 536.4L499 488.1Z" fill="#360000" stroke="#360000"></path><path d="M162 125.7L189 171.4L224 138.4Z" fill="#c00012" stroke="#c00012"></path><path d="M224 138.4L189 171.4L236 179.3Z" fill="#ff0000" stroke="#ff0000"></path><path d="M189 171.4L175 202.1L236 179.3Z" fill="#ff0000" stroke="#ff0000"></path><path d="M108 298.9L165 343L178 330.9Z" fill="#d5000f" stroke="#d5000f"></path><path d="M584 523.1L520 475.4L499 488.1Z" fill="#970014" stroke="#970014"></path><path d="M125 274L178 330.9L180 262.1Z" fill="#ff0000" stroke="#ff0000"></path><path d="M178 330.9L165 343L202 356.7Z" fill="#d5000f" stroke="#d5000f"></path><path d="M245 447.3L248 481.3L279 469.4Z" fill="#360000" stroke="#360000"></path><path d="M285 490.1L299 540.1L297 484.3Z" fill="#360000" stroke="#360000"></path><path d="M229 490.1L248 481.3L245 447.3Z" fill="#360000" stroke="#360000"></path><path d="M229 490.1L245 447.3L233 433.6Z" fill="#480008" stroke="#480008"></path><path d="M669 409.7L646 377.7L610 407.6Z" fill="#480008" stroke="#480008"></path><path d="M610 407.6L646 377.7L605 362Z" fill="#5b000e" stroke="#5b000e"></path><path d="M645 306L674 285.9L640 281.1Z" fill="#970014" stroke="#970014"></path><path d="M374 536.4L452 538.1L413 482.3Z" fill="#6f0012" stroke="#6f0012"></path><path d="M165 343L170 369.7L202 356.7Z" fill="#830013" stroke="#830013"></path><path d="M516 95.6L519 58.9L507 92.9Z" fill="#ea0009" stroke="#ea0009"></path><path d="M507 92.9L519 58.9L482 109.4Z" fill="#ff0000" stroke="#ff0000"></path><path d="M325 20.7L302 53.7L341 91.9Z" fill="#480008" stroke="#480008"></path><path d="M555 108.6L519 58.9L516 95.6Z" fill="#830013" stroke="#830013"></path><path d="M520 45.7L519 58.9L555 108.6Z" fill="#6f0012" stroke="#6f0012"></path><path d="M452 538.1L475 536.4L468 495.4Z" fill="#970014" stroke="#970014"></path><path d="M325 20.7L341 91.9L357 0Z" fill="#5b000e" stroke="#5b000e"></path><path d="M215 80.9L207 102.6L245 109.4Z" fill="#ff0000" stroke="#ff0000"></path><path d="M692 294.1L674 285.9L645 306Z" fill="#480008" stroke="#480008"></path><path d="M469 600L471 547.1L452 538.1Z" fill="#c00012" stroke="#c00012"></path><path d="M452 538.1L471 547.1L475 536.4Z" fill="#480008" stroke="#480008"></path><path d="M475 536.4L584 523.1L499 488.1Z" fill="#d5000f" stroke="#d5000f"></path><path d="M566 0L520 45.7L555 108.6Z" fill="#ff0000" stroke="#ff0000"></path><path d="M519 58.9L439 0L409 78.6Z" fill="#c00012" stroke="#c00012"></path><path d="M566 0L555 108.6L594 0Z" fill="#ea0009" stroke="#ea0009"></path><path d="M176 473.3L229 490.1L233 433.6Z" fill="#d5000f" stroke="#d5000f"></path><path d="M252 555.1L299 540.1L285 490.1Z" fill="#480008" stroke="#480008"></path><path d="M125 274L141 257L88 230Z" fill="#6f0012" stroke="#6f0012"></path><path d="M175 202.1L141 257L180 262.1Z" fill="#5b000e" stroke="#5b000e"></path><path d="M165 343L146 361.6L170 369.7Z" fill="#360000" stroke="#360000"></path><path d="M108 298.9L146 361.6L165 343Z" fill="#480008" stroke="#480008"></path><path d="M147 441.6L233 433.6L229 409.9Z" fill="#ff0000" stroke="#ff0000"></path><path d="M228 514.4L285 490.1L248 481.3Z" fill="#6f0012" stroke="#6f0012"></path><path d="M374 536.4L469 600L452 538.1Z" fill="#ea0009" stroke="#ea0009"></path><path d="M228 69.6L245 109.4L261 99.9Z" fill="#480008" stroke="#480008"></path><path d="M245 109.4L207 102.6L224 138.4Z" fill="#360000" stroke="#360000"></path><path d="M189 171.4L134 163.3L175 202.1Z" fill="#ac0014" stroke="#ac0014"></path><path d="M574 477.6L640 449.4L610 407.6Z" fill="#6f0012" stroke="#6f0012"></path><path d="M722 352L692 294.1L645 306Z" fill="#480008" stroke="#480008"></path><path d="M601 524.3L640 449.4L574 477.6Z" fill="#5b000e" stroke="#5b000e"></path><path d="M601 524.3L574 477.6L571 481.4Z" fill="#ff0000" stroke="#ff0000"></path><path d="M299 540.1L355 564.1L374 536.4Z" fill="#ac0014" stroke="#ac0014"></path><path d="M357 0L341 91.9L409 78.6Z" fill="#970014" stroke="#970014"></path><path d="M302 53.7L228 69.6L261 99.9Z" fill="#c00012" stroke="#c00012"></path><path d="M722 352L645 306L646 377.7Z" fill="#ea0009" stroke="#ea0009"></path><path d="M721 203.4L692 181.3L644 200.3Z" fill="#6f0012" stroke="#6f0012"></path><path d="M692 181.3L660 157.4L644 200.3Z" fill="#480008" stroke="#480008"></path><path d="M644 200.3L660 157.4L577 118.7Z" fill="#ff0000" stroke="#ff0000"></path><path d="M227 37.7L228 69.6L233 28.9Z" fill="#480008" stroke="#480008"></path><path d="M228 69.6L215 80.9L245 109.4Z" fill="#5b000e" stroke="#5b000e"></path><path d="M88 230L141 257L175 202.1Z" fill="#970014" stroke="#970014"></path><path d="M162 125.7L224 138.4L207 102.6Z" fill="#830013" stroke="#830013"></path><path d="M141 257L125 274L180 262.1Z" fill="#ff0000" stroke="#ff0000"></path><path d="M640 449.4L669 409.7L610 407.6Z" fill="#ff0000" stroke="#ff0000"></path><path d="M189 528.4L228 514.4L229 490.1Z" fill="#5b000e" stroke="#5b000e"></path><path d="M229 490.1L228 514.4L248 481.3Z" fill="#6f0012" stroke="#6f0012"></path><path d="M299 540.1L311 600L355 564.1Z" fill="#360000" stroke="#360000"></path><path d="M520 45.7L439 0L519 58.9Z" fill="#5b000e" stroke="#5b000e"></path><path d="M554 600L584 523.1L475 536.4Z" fill="#830013" stroke="#830013"></path><path d="M228 69.6L201 82.9L215 80.9Z" fill="#ac0014" stroke="#ac0014"></path><path d="M215 80.9L201 82.9L207 102.6Z" fill="#c00012" stroke="#c00012"></path><path d="M227 37.7L201 82.9L228 69.6Z" fill="#d5000f" stroke="#d5000f"></path><path d="M439 0L357 0L409 78.6Z" fill="#ff0000" stroke="#ff0000"></path><path d="M325 20.7L312 0L302 53.7Z" fill="#360000" stroke="#360000"></path><path d="M660 157.4L649 117.6L577 118.7Z" fill="#360000" stroke="#360000"></path><path d="M520 45.7L484 -4.1L439 0Z" fill="#c00012" stroke="#c00012"></path><path d="M357 0L353 0L325 20.7Z" fill="#830013" stroke="#830013"></path><path d="M353 0L348 0L325 20.7Z" fill="#6f0012" stroke="#6f0012"></path><path d="M156 110.6L162 125.7L207 102.6Z" fill="#ac0014" stroke="#ac0014"></path><path d="M147 441.6L229 409.9L170 369.7Z" fill="#d5000f" stroke="#d5000f"></path><path d="M721 203.4L644 200.3L674 285.9Z" fill="#ff0000" stroke="#ff0000"></path><path d="M660 157.4L661 103.9L649 117.6Z" fill="#6f0012" stroke="#6f0012"></path><path d="M509 0L484 -4.1L520 45.7Z" fill="#970014" stroke="#970014"></path><path d="M439 0L361 -20.1L357 0Z" fill="#830013" stroke="#830013"></path><path d="M357 0L361 -20.1L353 0Z" fill="#d5000f" stroke="#d5000f"></path><path d="M353 0L361 -20.1L348 0Z" fill="#d5000f" stroke="#d5000f"></path><path d="M125 274L108 298.9L178 330.9Z" fill="#ff0000" stroke="#ff0000"></path><path d="M146 361.6L147 441.6L170 369.7Z" fill="#ea0009" stroke="#ea0009"></path><path d="M66 258L108 298.9L125 274Z" fill="#360000" stroke="#360000"></path><path d="M709 415.6L669 409.7L640 449.4Z" fill="#ac0014" stroke="#ac0014"></path><path d="M709 415.6L689 405.4L669 409.7Z" fill="#970014" stroke="#970014"></path><path d="M669 409.7L689 405.4L646 377.7Z" fill="#ff0000" stroke="#ff0000"></path><path d="M614 532.3L601 524.3L584 523.1Z" fill="#970014" stroke="#970014"></path><path d="M584 523.1L601 524.3L571 481.4Z" fill="#360000" stroke="#360000"></path><path d="M136 157.3L134 163.3L189 171.4Z" fill="#d5000f" stroke="#d5000f"></path><path d="M162 125.7L136 157.3L189 171.4Z" fill="#c00012" stroke="#c00012"></path><path d="M81 431.7L147 441.6L146 361.6Z" fill="#480008" stroke="#480008"></path><path d="M361 -20.1L312 0L348 0Z" fill="#ff0000" stroke="#ff0000"></path><path d="M348 0L312 0L325 20.7Z" fill="#ac0014" stroke="#ac0014"></path><path d="M518 0L509 0L520 45.7Z" fill="#ea0009" stroke="#ea0009"></path><path d="M156 110.6L150 124.6L162 125.7Z" fill="#ea0009" stroke="#ea0009"></path><path d="M162 125.7L150 124.6L136 157.3Z" fill="#d5000f" stroke="#d5000f"></path><path d="M566 0L518 0L520 45.7Z" fill="#970014" stroke="#970014"></path><path d="M509 0L484 -23.1L484 -4.1Z" fill="#360000" stroke="#360000"></path><path d="M189 528.4L252 555.1L228 514.4Z" fill="#830013" stroke="#830013"></path><path d="M228 514.4L252 555.1L285 490.1Z" fill="#ff0000" stroke="#ff0000"></path><path d="M201 82.9L156 110.6L207 102.6Z" fill="#c00012" stroke="#c00012"></path><path d="M147 101.7L156 110.6L201 82.9Z" fill="#5b000e" stroke="#5b000e"></path><path d="M233 28.9L228 69.6L302 53.7Z" fill="#ac0014" stroke="#ac0014"></path><path d="M687 92.9L661 103.9L711 101.7Z" fill="#830013" stroke="#830013"></path><path d="M649 117.6L657 91.6L577 118.7Z" fill="#c00012" stroke="#c00012"></path><path d="M484 -23.1L361 -20.1L439 0Z" fill="#480008" stroke="#480008"></path><path d="M484 -23.1L439 0L484 -4.1Z" fill="#5b000e" stroke="#5b000e"></path><path d="M176 473.3L171 491.6L229 490.1Z" fill="#480008" stroke="#480008"></path><path d="M147 441.6L171 491.6L176 473.3Z" fill="#ac0014" stroke="#ac0014"></path><path d="M246 0L233 28.9L302 53.7Z" fill="#6f0012" stroke="#6f0012"></path><path d="M118 56.9L147 101.7L201 82.9Z" fill="#970014" stroke="#970014"></path><path d="M246 0L302 53.7L312 0Z" fill="#d5000f" stroke="#d5000f"></path><path d="M687 92.9L657 91.6L661 103.9Z" fill="#6f0012" stroke="#6f0012"></path><path d="M661 103.9L657 91.6L649 117.6Z" fill="#970014" stroke="#970014"></path><path d="M355 564.1L469 600L374 536.4Z" fill="#360000" stroke="#360000"></path><path d="M471 547.1L554 600L475 536.4Z" fill="#5b000e" stroke="#5b000e"></path><path d="M311 600L469 600L355 564.1Z" fill="#360000" stroke="#360000"></path><path d="M469 600L470 600L471 547.1Z" fill="#970014" stroke="#970014"></path><path d="M606 600L614 532.3L584 523.1Z" fill="#c00012" stroke="#c00012"></path><path d="M601 524.3L665 494.4L640 449.4Z" fill="#d5000f" stroke="#d5000f"></path><path d="M741 324.1L728 281L692 294.1Z" fill="#480008" stroke="#480008"></path><path d="M692 294.1L728 281L674 285.9Z" fill="#ac0014" stroke="#ac0014"></path><path d="M709 415.6L722 352L689 405.4Z" fill="#d5000f" stroke="#d5000f"></path><path d="M689 405.4L722 352L646 377.7Z" fill="#ff0000" stroke="#ff0000"></path><path d="M470 600L477 600L471 547.1Z" fill="#c00012" stroke="#c00012"></path><path d="M639 549.3L616 532.1L614 532.3Z" fill="#970014" stroke="#970014"></path><path d="M614 532.3L616 532.1L601 524.3Z" fill="#ac0014" stroke="#ac0014"></path><path d="M580 -18.1L484 -23.1L518 0Z" fill="#480008" stroke="#480008"></path><path d="M518 0L484 -23.1L509 0Z" fill="#ea0009" stroke="#ea0009"></path><path d="M728 281L721 203.4L674 285.9Z" fill="#360000" stroke="#360000"></path><path d="M711 101.7L661 103.9L660 157.4Z" fill="#ea0009" stroke="#ea0009"></path><path d="M186 19.7L201 82.9L227 37.7Z" fill="#360000" stroke="#360000"></path><path d="M156 110.6L147 101.7L150 124.6Z" fill="#970014" stroke="#970014"></path><path d="M150 124.6L96 129.4L136 157.3Z" fill="#d5000f" stroke="#d5000f"></path><path d="M74 159.6L88 230L134 163.3Z" fill="#ff0000" stroke="#ff0000"></path><path d="M665 494.4L709 415.6L640 449.4Z" fill="#360000" stroke="#360000"></path><path d="M171 491.6L189 528.4L229 490.1Z" fill="#6f0012" stroke="#6f0012"></path><path d="M274 600L299 540.1L252 555.1Z" fill="#ff0000" stroke="#ff0000"></path><path d="M274 600L311 600L299 540.1Z" fill="#830013" stroke="#830013"></path><path d="M96 129.4L134 163.3L136 157.3Z" fill="#ff0000" stroke="#ff0000"></path><path d="M134 163.3L88 230L175 202.1Z" fill="#ea0009" stroke="#ea0009"></path><path d="M108 298.9L78 371.7L146 361.6Z" fill="#360000" stroke="#360000"></path><path d="M616 532.1L665 494.4L601 524.3Z" fill="#ac0014" stroke="#ac0014"></path><path d="M594 0L555 108.6L637 26.7Z" fill="#c00012" stroke="#c00012"></path><path d="M361 -20.1L246 0L312 0Z" fill="#c00012" stroke="#c00012"></path><path d="M233 28.9L186 19.7L227 37.7Z" fill="#360000" stroke="#360000"></path><path d="M766 327.9L741 324.1L722 352Z" fill="#6f0012" stroke="#6f0012"></path><path d="M722 352L741 324.1L692 294.1Z" fill="#ea0009" stroke="#ea0009"></path><path d="M728 281L803 251.1L721 203.4Z" fill="#d5000f" stroke="#d5000f"></path><path d="M711 101.7L660 157.4L692 181.3Z" fill="#830013" stroke="#830013"></path><path d="M637 26.7L555 108.6L577 118.7Z" fill="#ff0000" stroke="#ff0000"></path><path d="M219 600L274 600L252 555.1Z" fill="#480008" stroke="#480008"></path><path d="M62 291.9L78 371.7L108 298.9Z" fill="#5b000e" stroke="#5b000e"></path><path d="M154 536.4L159 531.3L102 545.3Z" fill="#c00012" stroke="#c00012"></path><path d="M171 491.6L159 531.3L189 528.4Z" fill="#5b000e" stroke="#5b000e"></path><path d="M637 26.7L577 118.7L657 91.6Z" fill="#6f0012" stroke="#6f0012"></path><path d="M566 0L580 -18.1L518 0Z" fill="#360000" stroke="#360000"></path><path d="M477 600L554 600L471 547.1Z" fill="#480008" stroke="#480008"></path><path d="M616 532.1L639 549.3L665 494.4Z" fill="#c00012" stroke="#c00012"></path><path d="M61 230.3L66 258L88 230Z" fill="#480008" stroke="#480008"></path><path d="M88 230L66 258L125 274Z" fill="#5b000e" stroke="#5b000e"></path><path d="M690 72.6L637 26.7L657 91.6Z" fill="#360000" stroke="#360000"></path><path d="M606 600L639 549.3L614 532.3Z" fill="#ac0014" stroke="#ac0014"></path><path d="M741 462.6L733 428.4L709 415.6Z" fill="#ac0014" stroke="#ac0014"></path><path d="M66 258L62 291.9L108 298.9Z" fill="#d5000f" stroke="#d5000f"></path><path d="M159 531.3L171 491.6L102 545.3Z" fill="#c00012" stroke="#c00012"></path><path d="M216 600L219 600L252 555.1Z" fill="#480008" stroke="#480008"></path><path d="M192 0L186 19.7L233 28.9Z" fill="#830013" stroke="#830013"></path><path d="M147 101.7L96 129.4L150 124.6Z" fill="#c00012" stroke="#c00012"></path><path d="M641 0L580 -18.1L594 0Z" fill="#d5000f" stroke="#d5000f"></path><path d="M594 0L580 -18.1L566 0Z" fill="#ea0009" stroke="#ea0009"></path><path d="M738 430.7L733 428.4L747 451.3Z" fill="#d5000f" stroke="#d5000f"></path><path d="M709 415.6L733 428.4L722 352Z" fill="#ff0000" stroke="#ff0000"></path><path d="M118 56.9L96 129.4L147 101.7Z" fill="#ff0000" stroke="#ff0000"></path><path d="M711 101.7L690 72.6L687 92.9Z" fill="#ff0000" stroke="#ff0000"></path><path d="M687 92.9L690 72.6L657 91.6Z" fill="#6f0012" stroke="#6f0012"></path><path d="M74 159.6L61 230.3L88 230Z" fill="#970014" stroke="#970014"></path><path d="M0 265.3L14 308.9L62 291.9Z" fill="#830013" stroke="#830013"></path><path d="M776 151.7L711 101.7L692 181.3Z" fill="#ea0009" stroke="#ea0009"></path><path d="M776 151.7L692 181.3L721 203.4Z" fill="#c00012" stroke="#c00012"></path><path d="M102 545.3L171 491.6L147 441.6Z" fill="#5b000e" stroke="#5b000e"></path><path d="M159 531.3L154 536.4L189 528.4Z" fill="#ac0014" stroke="#ac0014"></path><path d="M741 462.6L709 415.6L665 494.4Z" fill="#ac0014" stroke="#ac0014"></path><path d="M733 428.4L781 398.9L722 352Z" fill="#6f0012" stroke="#6f0012"></path><path d="M781 398.9L766 327.9L722 352Z" fill="#ac0014" stroke="#ac0014"></path><path d="M741 324.1L783 299.9L728 281Z" fill="#c00012" stroke="#c00012"></path><path d="M0 405.4L81 431.7L78 371.7Z" fill="#ea0009" stroke="#ea0009"></path><path d="M78 371.7L81 431.7L146 361.6Z" fill="#d5000f" stroke="#d5000f"></path><path d="M96 129.4L74 159.6L134 163.3Z" fill="#480008" stroke="#480008"></path><path d="M246 0L192 0L233 28.9Z" fill="#d5000f" stroke="#d5000f"></path><path d="M186 19.7L118 56.9L201 82.9Z" fill="#c00012" stroke="#c00012"></path><path d="M361 -20.1L192 0L246 0Z" fill="#360000" stroke="#360000"></path><path d="M216 600L252 555.1L189 528.4Z" fill="#ea0009" stroke="#ea0009"></path><path d="M198 600L216 600L189 528.4Z" fill="#ea0009" stroke="#ea0009"></path><path d="M554 600L606 600L584 523.1Z" fill="#ac0014" stroke="#ac0014"></path><path d="M714 528.3L741 462.6L665 494.4Z" fill="#ea0009" stroke="#ea0009"></path><path d="M690 72.6L641 0L637 26.7Z" fill="#830013" stroke="#830013"></path><path d="M637 26.7L641 0L594 0Z" fill="#830013" stroke="#830013"></path><path d="M764 0L641 0L690 72.6Z" fill="#ea0009" stroke="#ea0009"></path><path d="M361 -20.1L177 0L192 0Z" fill="#c00012" stroke="#c00012"></path><path d="M192 0L177 0L186 19.7Z" fill="#360000" stroke="#360000"></path><path d="M96 129.4L57 106.7L74 159.6Z" fill="#360000" stroke="#360000"></path><path d="M177 0L118 56.9L186 19.7Z" fill="#ea0009" stroke="#ea0009"></path><path d="M809 325.1L783 299.9L766 327.9Z" fill="#480008" stroke="#480008"></path><path d="M766 327.9L783 299.9L741 324.1Z" fill="#c00012" stroke="#c00012"></path><path d="M714 528.3L665 494.4L639 549.3Z" fill="#5b000e" stroke="#5b000e"></path><path d="M738 430.7L781 398.9L733 428.4Z" fill="#c00012" stroke="#c00012"></path><path d="M741 462.6L747 451.3L733 428.4Z" fill="#d5000f" stroke="#d5000f"></path><path d="M74 159.6L41 217.1L61 230.3Z" fill="#d5000f" stroke="#d5000f"></path><path d="M61 230.3L41 217.1L66 258Z" fill="#970014" stroke="#970014"></path><path d="M62 291.9L14 308.9L78 371.7Z" fill="#5b000e" stroke="#5b000e"></path><path d="M0 226.4L41 217.1L0 205.1Z" fill="#ff0000" stroke="#ff0000"></path><path d="M186 600L189 528.4L154 536.4Z" fill="#5b000e" stroke="#5b000e"></path><path d="M186 600L198 600L189 528.4Z" fill="#970014" stroke="#970014"></path><path d="M606 600L648 582.1L639 549.3Z" fill="#d5000f" stroke="#d5000f"></path><path d="M158 600L186 600L154 536.4Z" fill="#ea0009" stroke="#ea0009"></path><path d="M779 459.6L747 451.3L741 462.6Z" fill="#d5000f" stroke="#d5000f"></path><path d="M779 459.6L767 434.7L747 451.3Z" fill="#830013" stroke="#830013"></path><path d="M747 451.3L767 434.7L738 430.7Z" fill="#5b000e" stroke="#5b000e"></path><path d="M767 434.7L781 398.9L738 430.7Z" fill="#ac0014" stroke="#ac0014"></path><path d="M606 600L640 600L648 582.1Z" fill="#ac0014" stroke="#ac0014"></path><path d="M723 559.3L714 528.3L639 549.3Z" fill="#ac0014" stroke="#ac0014"></path><path d="M723 559.3L639 549.3L648 582.1Z" fill="#6f0012" stroke="#6f0012"></path><path d="M806 197.3L776 151.7L721 203.4Z" fill="#c00012" stroke="#c00012"></path><path d="M711 101.7L768 100.9L690 72.6Z" fill="#d5000f" stroke="#d5000f"></path><path d="M55 88.6L67 96.9L71 59.9Z" fill="#480008" stroke="#480008"></path><path d="M118 56.9L67 96.9L96 129.4Z" fill="#ea0009" stroke="#ea0009"></path><path d="M804 253L803 251.1L783 299.9Z" fill="#c00012" stroke="#c00012"></path><path d="M783 299.9L803 251.1L728 281Z" fill="#ff0000" stroke="#ff0000"></path><path d="M606 600L619 624.1L640 600Z" fill="#5b000e" stroke="#5b000e"></path><path d="M640 600L663 600L648 582.1Z" fill="#c00012" stroke="#c00012"></path><path d="M554 600L619 624.1L606 600Z" fill="#970014" stroke="#970014"></path><path d="M477 600L619 624.1L554 600Z" fill="#ac0014" stroke="#ac0014"></path><path d="M470 600L619 624.1L477 600Z" fill="#ff0000" stroke="#ff0000"></path><path d="M469 600L619 624.1L470 600Z" fill="#5b000e" stroke="#5b000e"></path><path d="M311 600L619 624.1L469 600Z" fill="#480008" stroke="#480008"></path><path d="M274 600L619 624.1L311 600Z" fill="#c00012" stroke="#c00012"></path><path d="M219 600L619 624.1L274 600Z" fill="#ea0009" stroke="#ea0009"></path><path d="M216 600L619 624.1L219 600Z" fill="#d5000f" stroke="#d5000f"></path><path d="M198 600L619 624.1L216 600Z" fill="#ea0009" stroke="#ea0009"></path><path d="M186 600L619 624.1L198 600Z" fill="#6f0012" stroke="#6f0012"></path><path d="M827 282.3L804 253L783 299.9Z" fill="#830013" stroke="#830013"></path><path d="M803 251.1L806 197.3L721 203.4Z" fill="#c00012" stroke="#c00012"></path><path d="M102 545.3L125 563.1L154 536.4Z" fill="#6f0012" stroke="#6f0012"></path><path d="M62 291.9L66 258L0 265.3Z" fill="#ac0014" stroke="#ac0014"></path><path d="M0 303.9L14 308.9L0 265.3Z" fill="#970014" stroke="#970014"></path><path d="M48 495.4L102 545.3L147 441.6Z" fill="#360000" stroke="#360000"></path><path d="M67 96.9L57 106.7L96 129.4Z" fill="#ff0000" stroke="#ff0000"></path><path d="M125 563.1L158 600L154 536.4Z" fill="#6f0012" stroke="#6f0012"></path><path d="M186 600L158 600L619 624.1Z" fill="#480008" stroke="#480008"></path><path d="M781 398.9L809 325.1L766 327.9Z" fill="#c00012" stroke="#c00012"></path><path d="M48 495.4L147 441.6L81 431.7Z" fill="#ff0000" stroke="#ff0000"></path><path d="M125 563.1L105 600L158 600Z" fill="#ac0014" stroke="#ac0014"></path><path d="M619 624.1L663 600L640 600Z" fill="#360000" stroke="#360000"></path><path d="M834 79.6L768 100.9L776 151.7Z" fill="#6f0012" stroke="#6f0012"></path><path d="M776 151.7L768 100.9L711 101.7Z" fill="#6f0012" stroke="#6f0012"></path><path d="M806 197.3L803 251.1L844 217.3Z" fill="#ac0014" stroke="#ac0014"></path><path d="M834 186.6L806 197.3L844 217.3Z" fill="#830013" stroke="#830013"></path><path d="M767 434.7L824 424.7L781 398.9Z" fill="#ea0009" stroke="#ea0009"></path><path d="M831 331.7L820 319.1L809 325.1Z" fill="#5b000e" stroke="#5b000e"></path><path d="M788 493.1L779 459.6L741 462.6Z" fill="#ac0014" stroke="#ac0014"></path><path d="M788 493.1L741 462.6L769 526.1Z" fill="#ac0014" stroke="#ac0014"></path><path d="M71 59.9L67 96.9L118 56.9Z" fill="#ac0014" stroke="#ac0014"></path><path d="M67 96.9L55 88.6L57 106.7Z" fill="#ac0014" stroke="#ac0014"></path><path d="M0 240L66 258L41 217.1Z" fill="#c00012" stroke="#c00012"></path><path d="M97 18.7L71 59.9L118 56.9Z" fill="#d5000f" stroke="#d5000f"></path><path d="M14 308.9L6 359.6L78 371.7Z" fill="#c00012" stroke="#c00012"></path><path d="M0 265.3L66 258L0 240Z" fill="#480008" stroke="#480008"></path><path d="M14 308.9L0 303.9L6 359.6Z" fill="#970014" stroke="#970014"></path><path d="M0 240L41 217.1L0 226.4Z" fill="#c00012" stroke="#c00012"></path><path d="M831 331.7L809 325.1L781 398.9Z" fill="#360000" stroke="#360000"></path><path d="M809 325.1L820 319.1L783 299.9Z" fill="#830013" stroke="#830013"></path><path d="M41 217.1L0 165.6L0 205.1Z" fill="#d5000f" stroke="#d5000f"></path><path d="M177 0L97 18.7L118 56.9Z" fill="#d5000f" stroke="#d5000f"></path><path d="M663 600L723 559.3L648 582.1Z" fill="#ac0014" stroke="#ac0014"></path><path d="M41 217.1L74 159.6L0 165.6Z" fill="#5b000e" stroke="#5b000e"></path><path d="M23 452.7L42 484.4L81 431.7Z" fill="#ff0000" stroke="#ff0000"></path><path d="M42 484.4L48 495.4L81 431.7Z" fill="#ea0009" stroke="#ea0009"></path><path d="M86 594.1L105 600L125 563.1Z" fill="#970014" stroke="#970014"></path><path d="M820 319.1L827 282.3L783 299.9Z" fill="#480008" stroke="#480008"></path><path d="M0 165.6L74 159.6L57 106.7Z" fill="#ac0014" stroke="#ac0014"></path><path d="M0 303.9L0 379.6L6 359.6Z" fill="#830013" stroke="#830013"></path><path d="M6 359.6L0 379.6L78 371.7Z" fill="#970014" stroke="#970014"></path><path d="M0 405.4L23 452.7L81 431.7Z" fill="#5b000e" stroke="#5b000e"></path><path d="M0 539.1L35 567.1L48 495.4Z" fill="#830013" stroke="#830013"></path><path d="M824 424.7L831 331.7L781 398.9Z" fill="#d5000f" stroke="#d5000f"></path><path d="M820 319.1L839 300L827 282.3Z" fill="#ac0014" stroke="#ac0014"></path><path d="M0 379.6L0 405.4L78 371.7Z" fill="#d5000f" stroke="#d5000f"></path><path d="M-3 105.4L57 106.7L55 88.6Z" fill="#360000" stroke="#360000"></path><path d="M-3 105.4L0 165.6L57 106.7Z" fill="#5b000e" stroke="#5b000e"></path><path d="M-3 105.4L55 88.6L0 46.9Z" fill="#830013" stroke="#830013"></path><path d="M0 165.6L-13 220.1L0 205.1Z" fill="#830013" stroke="#830013"></path><path d="M0 205.1L-13 220.1L0 226.4Z" fill="#ea0009" stroke="#ea0009"></path><path d="M0 226.4L-13 220.1L0 240Z" fill="#480008" stroke="#480008"></path><path d="M0 240L-18 263.3L0 265.3Z" fill="#830013" stroke="#830013"></path><path d="M0 265.3L-18 263.3L0 303.9Z" fill="#480008" stroke="#480008"></path><path d="M0 303.9L-18 263.3L0 379.6Z" fill="#970014" stroke="#970014"></path><path d="M0 379.6L-18 263.3L0 405.4Z" fill="#830013" stroke="#830013"></path><path d="M-13 220.1L-18 263.3L0 240Z" fill="#970014" stroke="#970014"></path><path d="M831 331.7L839 300L820 319.1Z" fill="#ff0000" stroke="#ff0000"></path><path d="M834 186.6L828 168.6L806 197.3Z" fill="#6f0012" stroke="#6f0012"></path><path d="M769 526.1L741 462.6L714 528.3Z" fill="#830013" stroke="#830013"></path><path d="M779 459.6L824 424.7L767 434.7Z" fill="#d5000f" stroke="#d5000f"></path><path d="M723 559.3L769 526.1L714 528.3Z" fill="#ea0009" stroke="#ea0009"></path><path d="M663 600L719 594.1L723 559.3Z" fill="#830013" stroke="#830013"></path><path d="M723 559.3L729 600L769 526.1Z" fill="#ff0000" stroke="#ff0000"></path><path d="M729 600L719 594.1L663 600Z" fill="#ff0000" stroke="#ff0000"></path><path d="M806 197.3L828 168.6L776 151.7Z" fill="#360000" stroke="#360000"></path><path d="M803 251.1L804 253L844 217.3Z" fill="#ff0000" stroke="#ff0000"></path><path d="M853 481.3L824 424.7L779 459.6Z" fill="#ac0014" stroke="#ac0014"></path><path d="M831 331.7L863 314.9L839 300Z" fill="#830013" stroke="#830013"></path><path d="M86 594.1L102 545.3L35 567.1Z" fill="#480008" stroke="#480008"></path><path d="M86 594.1L125 563.1L102 545.3Z" fill="#830013" stroke="#830013"></path><path d="M158 600L105 600L619 624.1Z" fill="#ac0014" stroke="#ac0014"></path><path d="M844 217.3L804 253L827 282.3Z" fill="#360000" stroke="#360000"></path><path d="M0 405.4L0 445.7L23 452.7Z" fill="#830013" stroke="#830013"></path><path d="M23 452.7L0 445.7L42 484.4Z" fill="#ea0009" stroke="#ea0009"></path><path d="M-18 572.3L0 445.7L0 405.4Z" fill="#480008" stroke="#480008"></path><path d="M900 289L844 217.3L827 282.3Z" fill="#360000" stroke="#360000"></path><path d="M35 567.1L102 545.3L48 495.4Z" fill="#360000" stroke="#360000"></path><path d="M619 624.1L729 600L663 600Z" fill="#970014" stroke="#970014"></path><path d="M719 594.1L729 600L723 559.3Z" fill="#480008" stroke="#480008"></path><path d="M769 526.1L801 531.4L788 493.1Z" fill="#830013" stroke="#830013"></path><path d="M0 46.9L55 88.6L71 59.9Z" fill="#ac0014" stroke="#ac0014"></path><path d="M0 165.6L-3 105.4L-13 220.1Z" fill="#ac0014" stroke="#ac0014"></path><path d="M-13 220.1L-15 0L-18 263.3Z" fill="#d5000f" stroke="#d5000f"></path><path d="M177 0L61 0L97 18.7Z" fill="#6f0012" stroke="#6f0012"></path><path d="M97 18.7L61 0L71 59.9Z" fill="#c00012" stroke="#c00012"></path><path d="M361 -20.1L61 0L177 0Z" fill="#5b000e" stroke="#5b000e"></path><path d="M880 322L863 314.9L831 331.7Z" fill="#ff0000" stroke="#ff0000"></path><path d="M839 300L900 289L827 282.3Z" fill="#480008" stroke="#480008"></path><path d="M834 186.6L846 155.4L828 168.6Z" fill="#5b000e" stroke="#5b000e"></path><path d="M828 168.6L846 155.4L776 151.7Z" fill="#5b000e" stroke="#5b000e"></path><path d="M768 100.9L764 0L690 72.6Z" fill="#ea0009" stroke="#ea0009"></path><path d="M900 204.4L846 155.4L834 186.6Z" fill="#d5000f" stroke="#d5000f"></path><path d="M900 204.4L834 186.6L844 217.3Z" fill="#c00012" stroke="#c00012"></path><path d="M808 58.7L764 0L768 100.9Z" fill="#480008" stroke="#480008"></path><path d="M641 0L764 0L580 -18.1Z" fill="#ea0009" stroke="#ea0009"></path><path d="M834 79.6L808 58.7L768 100.9Z" fill="#ea0009" stroke="#ea0009"></path><path d="M788 493.1L853 481.3L779 459.6Z" fill="#c00012" stroke="#c00012"></path><path d="M900 350.7L880 322L831 331.7Z" fill="#ac0014" stroke="#ac0014"></path><path d="M821 600L801 531.4L769 526.1Z" fill="#c00012" stroke="#c00012"></path><path d="M808 58.7L770 0L764 0Z" fill="#480008" stroke="#480008"></path><path d="M764 0L895 -26.1L580 -18.1Z" fill="#ac0014" stroke="#ac0014"></path><path d="M0 539.1L48 495.4L42 484.4Z" fill="#c00012" stroke="#c00012"></path><path d="M900 315.9L880 322L900 350.7Z" fill="#ac0014" stroke="#ac0014"></path><path d="M863 314.9L900 289L839 300Z" fill="#ea0009" stroke="#ea0009"></path><path d="M846 155.4L834 79.6L776 151.7Z" fill="#ac0014" stroke="#ac0014"></path><path d="M808 58.7L816 21.9L770 0Z" fill="#6f0012" stroke="#6f0012"></path><path d="M900 107.4L834 79.6L846 155.4Z" fill="#d5000f" stroke="#d5000f"></path><path d="M61 0L0 46.9L71 59.9Z" fill="#ac0014" stroke="#ac0014"></path><path d="M-3 105.4L-15 0L-13 220.1Z" fill="#360000" stroke="#360000"></path><path d="M-18 572.3L0 539.1L0 445.7Z" fill="#480008" stroke="#480008"></path><path d="M0 445.7L0 539.1L42 484.4Z" fill="#ea0009" stroke="#ea0009"></path><path d="M801 531.4L853 481.3L788 493.1Z" fill="#5b000e" stroke="#5b000e"></path><path d="M-18 572.3L0 548.3L0 539.1Z" fill="#d5000f" stroke="#d5000f"></path><path d="M0 539.1L0 548.3L35 567.1Z" fill="#480008" stroke="#480008"></path><path d="M834 79.6L816 21.9L808 58.7Z" fill="#ea0009" stroke="#ea0009"></path><path d="M61 0L0 21.7L0 46.9Z" fill="#6f0012" stroke="#6f0012"></path><path d="M0 46.9L-15 0L-3 105.4Z" fill="#c00012" stroke="#c00012"></path><path d="M900 296.1L863 314.9L880 322Z" fill="#ac0014" stroke="#ac0014"></path><path d="M900 296.1L900 289L863 314.9Z" fill="#d5000f" stroke="#d5000f"></path><path d="M834 79.6L859 0L816 21.9Z" fill="#5b000e" stroke="#5b000e"></path><path d="M900 315.9L900 296.1L880 322Z" fill="#ea0009" stroke="#ea0009"></path><path d="M900 350.7L831 331.7L824 424.7Z" fill="#830013" stroke="#830013"></path><path d="M879 444.4L900 350.7L824 424.7Z" fill="#d5000f" stroke="#d5000f"></path><path d="M900 289L900 225.3L844 217.3Z" fill="#970014" stroke="#970014"></path><path d="M853 481.3L879 444.4L824 424.7Z" fill="#480008" stroke="#480008"></path><path d="M900 225.3L900 204.4L844 217.3Z" fill="#970014" stroke="#970014"></path><path d="M61 0L0 0L0 21.7Z" fill="#480008" stroke="#480008"></path><path d="M0 21.7L-15 0L0 46.9Z" fill="#830013" stroke="#830013"></path><path d="M361 -20.1L0 0L61 0Z" fill="#480008" stroke="#480008"></path><path d="M905 469.6L900 434.6L879 444.4Z" fill="#970014" stroke="#970014"></path><path d="M879 444.4L900 434.6L900 350.7Z" fill="#5b000e" stroke="#5b000e"></path><path d="M-18 263.3L-18 572.3L0 405.4Z" fill="#ac0014" stroke="#ac0014"></path><path d="M0 548.3L-18 572.3L35 567.1Z" fill="#360000" stroke="#360000"></path><path d="M35 567.1L0 600L86 594.1Z" fill="#970014" stroke="#970014"></path><path d="M86 594.1L0 600L105 600Z" fill="#360000" stroke="#360000"></path><path d="M361 -20.1L-15 0L0 0Z" fill="#ac0014" stroke="#ac0014"></path><path d="M0 0L-15 0L0 21.7Z" fill="#970014" stroke="#970014"></path><path d="M-18 572.3L0 600L35 567.1Z" fill="#970014" stroke="#970014"></path><path d="M105 600L0 600L619 624.1Z" fill="#ea0009" stroke="#ea0009"></path><path d="M900 538.4L900 509.3L853 481.3Z" fill="#480008" stroke="#480008"></path><path d="M853 481.3L905 469.6L879 444.4Z" fill="#ac0014" stroke="#ac0014"></path><path d="M729 600L821 600L769 526.1Z" fill="#360000" stroke="#360000"></path><path d="M833 613.1L821 600L729 600Z" fill="#5b000e" stroke="#5b000e"></path><path d="M900 204.4L900 107.4L846 155.4Z" fill="#5b000e" stroke="#5b000e"></path><path d="M900 107.4L899 99.7L834 79.6Z" fill="#ea0009" stroke="#ea0009"></path><path d="M900 509.3L905 469.6L853 481.3Z" fill="#6f0012" stroke="#6f0012"></path><path d="M900 434.6L905 469.6L900 350.7Z" fill="#480008" stroke="#480008"></path><path d="M900 350.7L905 469.6L900 315.9Z" fill="#ac0014" stroke="#ac0014"></path><path d="M900 315.9L905 469.6L900 296.1Z" fill="#6f0012" stroke="#6f0012"></path><path d="M900 296.1L905 469.6L900 289Z" fill="#ff0000" stroke="#ff0000"></path><path d="M900 289L905 469.6L900 225.3Z" fill="#ea0009" stroke="#ea0009"></path><path d="M900 225.3L905 469.6L900 204.4Z" fill="#ff0000" stroke="#ff0000"></path><path d="M900 204.4L905 469.6L900 107.4Z" fill="#d5000f" stroke="#d5000f"></path><path d="M833 613.1L838 600L821 600Z" fill="#830013" stroke="#830013"></path><path d="M821 600L838 600L801 531.4Z" fill="#5b000e" stroke="#5b000e"></path><path d="M905 469.6L900 83.9L900 107.4Z" fill="#5b000e" stroke="#5b000e"></path><path d="M900 107.4L900 83.9L899 99.7Z" fill="#6f0012" stroke="#6f0012"></path><path d="M899 99.7L900 83.9L834 79.6Z" fill="#ac0014" stroke="#ac0014"></path><path d="M900 538.4L853 481.3L801 531.4Z" fill="#ff0000" stroke="#ff0000"></path><path d="M619 624.1L833 613.1L729 600Z" fill="#ff0000" stroke="#ff0000"></path><path d="M865 0L859 0L900 30.7Z" fill="#970014" stroke="#970014"></path><path d="M816 21.9L859 0L770 0Z" fill="#970014" stroke="#970014"></path><path d="M770 0L895 -26.1L764 0Z" fill="#c00012" stroke="#c00012"></path><path d="M853 600L801 531.4L838 600Z" fill="#830013" stroke="#830013"></path><path d="M900 30.7L859 0L834 79.6Z" fill="#830013" stroke="#830013"></path><path d="M859 0L895 -26.1L770 0Z" fill="#360000" stroke="#360000"></path><path d="M905 469.6L900 63.6L900 83.9Z" fill="#830013" stroke="#830013"></path><path d="M900 83.9L900 63.6L834 79.6Z" fill="#6f0012" stroke="#6f0012"></path><path d="M833 613.1L853 600L838 600Z" fill="#ea0009" stroke="#ea0009"></path><path d="M853 600L900 538.4L801 531.4Z" fill="#970014" stroke="#970014"></path><path d="M900 509.3L900 538.4L905 469.6Z" fill="#d5000f" stroke="#d5000f"></path><path d="M905 469.6L900 30.7L900 63.6Z" fill="#480008" stroke="#480008"></path><path d="M900 63.6L900 30.7L834 79.6Z" fill="#ea0009" stroke="#ea0009"></path><path d="M905 469.6L900 0L900 30.7Z" fill="#ac0014" stroke="#ac0014"></path><path d="M900 30.7L900 0L865 0Z" fill="#360000" stroke="#360000"></path><path d="M865 0L895 -26.1L859 0Z" fill="#ea0009" stroke="#ea0009"></path><path d="M900 0L895 -26.1L865 0Z" fill="#c00012" stroke="#c00012"></path><path d="M580 -18.1L895 -26.1L484 -23.1Z" fill="#6f0012" stroke="#6f0012"></path><path d="M900 538.4L900 597.1L905 469.6Z" fill="#ff0000" stroke="#ff0000"></path><path d="M853 600L900 597.1L900 538.4Z" fill="#480008" stroke="#480008"></path><path d="M900 600L900 597.1L853 600Z" fill="#5b000e" stroke="#5b000e"></path><path d="M833 613.1L900 600L853 600Z" fill="#d5000f" stroke="#d5000f"></path><path d="M900 597.1L900 600L905 469.6Z" fill="#5b000e" stroke="#5b000e"></path></g></svg>